<svg height="93" viewBox="0 0 156.311 92.494" width="157" xmlns="http://www.w3.org/2000/svg"><path d="m32.1 22.616-2.675-1.165c-.615-.756-1.245-1.49-1.873-2.229l-.656-.308-1.088-.628-1.02-.577-.483-.267-.105-.081c-.038-.028-.075-.057-.111.012l-.187.244-2.844 2.735-2.04 1.963-2.265 1.754-2.011 2-1.469 2.511-1.856 2.137-2.541 1.531-1.376 2.569-1.9 2.106-2.3 1.77c-.473.837-.959 1.662-1.419 2.509l-.727 1.189c-.084.151-.329.506-.526.807l-.593.894.062.08a3.973 3.973 0 0 0 .713 1.083c.217.166.475.363.7.564l.138.107-.1.071-.2.14-.834.576-.414.306a.911.911 0 0 0 -.1.068l.02.015.041.031.574.654.278.213a2.749 2.749 0 0 0 .24.157l.317.167.633.339 1.269.687 1.76 2.243 2.328 1.6 1.667 2.35 2.537 1.4 1.784 2.225 2.352 1.61 1.689 2.329 2.35 1.6 2.13 1.85 1.631 2.4 2.1 1.878 2.2 1.755 2.539 1.41 2.037 1.951 1.741 2.289 2.031 1.96 2.605 1.306 1.765 2.28 2.437 1.5 2 2.033 2.345 1.627 2.321 1.776a12.723 12.723 0 0 0 1.915 1.212l.989.462.13.056.054.042.041-.055.169-.22.363-.426 1.618-1.593c.4-.392.7-.647 1.054-.978.588-.7 1.2-1.38 1.816-2.064s1.206-1.388 1.831-2.07c.466-.82.967-1.63 1.458-2.447l2.133-1.833 2.32-1.663 1.9-2.089 1.788-2.222 2.155-1.9.763-1.243.743-1.252c.239-.193.486-.375.721-.577l.558-.47c.132-.109.956-.59-.834-2.035l.013-.017.058.044a2.7 2.7 0 0 0 .409.168.448.448 0 0 0 .523-.136 2.132 2.132 0 0 0 .481-1.556 2.778 2.778 0 0 0 -.666-1.369l-.873-1.135-.905-1.085c-.629-.7-1.261-1.4-1.909-2.083l-1.708-2.269-1.679-2.3q-1-1-2.023-1.984l-1.747-2.235-2.08-1.93q-.987-1.014-2-2.008l-1.906-2.1-2.29-1.7q-.9-1.1-1.828-2.183l-1.9-2.111-2.26-1.729q-.909-1.11-1.841-2.193l-2.16-1.841-2.232-1.751q-.915-1.107-1.868-2.186l-2.437-1.548-2.433-1.5c-.611-.746-1.235-1.482-1.865-2.211z" fill="#e12729"/><path d="m48.146 57.339c.156-.2.032-.1.022-.112a.66.66 0 0 0 -.168-.093l-.2-.2-.066-.357-.322-.063-.1-.327-.333-.035-.082-.385-.289-.092-.253-.14-.264-.126-.237-.182-.4.123c-.04-.143-.084-.29-.136-.432-.128.026-.252.055-.378.087a.965.965 0 0 1 -.326-.024 3.368 3.368 0 0 0 -.294-.177c-.112-.02-.225-.034-.338-.043a2.925 2.925 0 0 0 -.351-.124 3 3 0 0 0 -.36.176 2.808 2.808 0 0 0 -.331.172 2.509 2.509 0 0 0 -.405-.053 2.7 2.7 0 0 0 -.264.3 2.358 2.358 0 0 0 -.409.085 2.363 2.363 0 0 0 -.1.464 1.845 1.845 0 0 0 -.418.217 1.912 1.912 0 0 0 -.021.441 1.929 1.929 0 0 0 -.377.345 1.937 1.937 0 0 0 .345.42 2.475 2.475 0 0 0 -.031.384 2.823 2.823 0 0 0 -.123.443 2.293 2.293 0 0 0 .359.232c.042.107.086.211.133.311a1.715 1.715 0 0 1 .049.371 4.05 4.05 0 0 0 .454.025l.175.241.119.3.293.1a.461.461 0 0 1 .035.15l-.054.072v.033a.834.834 0 0 1 .332-.047.97.97 0 0 1 -.413.1.267.267 0 0 1 .107.029.206.206 0 0 1 -.07 0 .46.46 0 0 1 .193.148 1.088 1.088 0 0 1 -.26-.145c.032.078-.025.222-.032.33l-.256.088-.312.009-.115.283-.271.066-.178.191-.152.234-.185.186-.2.161-.269.057-.1.076-.015.021a.218.218 0 0 1 -.07.021.326.326 0 0 1 -.043-.161l-.042.054a.419.419 0 0 1 -.123.217l-.044-.1a1.383 1.383 0 0 0 -.154-.171l-.078-.291-.192-.184-.233-.146-.118-.252h-.381l-.121-.249-.246-.128-.1-.27-.213-.163a1.445 1.445 0 0 0 -.235-.143c-.051-.038-.034-.138-.184-.082-.013.017-.055-.041-.256.159l-.081.105-.159.174-.119.156a1.48 1.48 0 0 0 .159.122 1.235 1.235 0 0 0 .17.2l.214.163.113.259.085.29.24.136.106.269.242.132.2.178.146.23.3.075a1.432 1.432 0 0 0 .116.319l.273.43a2.659 2.659 0 0 0 .375.212l.148.263c.034.026.051.109.083.123l.1-.011.419-.3.373-.312.233-.031h.174l.127-.306.136-.282.363.052.241-.133.05-.4.387.076.081-.352.231-.14.241-.132a1.559 1.559 0 0 0 .347-.047c.128-.09.259-.162.39-.271a1.389 1.389 0 0 0 .09-.468 1.158 1.158 0 0 0 .162-.338 1.343 1.343 0 0 0 .42-.388 1.344 1.344 0 0 0 -.385-.381 1.55 1.55 0 0 0 -.2-.354 1.683 1.683 0 0 0 -.114-.484l-.268-.1a.858.858 0 0 0 -.175-.011l-.29-.049c.024-.144.048-.281.078-.419l-.381.042a2.57 2.57 0 0 1 .018-.3c-.094-.018-.176-.037-.27-.061a1.818 1.818 0 0 1 .124-.3 2.2 2.2 0 0 1 -.353-.023.812.812 0 0 1 .13-.212 1 1 0 0 1 -.2-.11.747.747 0 0 1 .258-.114.594.594 0 0 1 -.154-.15.626.626 0 0 1 .023-.128 1.016 1.016 0 0 1 .312.077l.06-.078a.728.728 0 0 1 .08-.1 1.3 1.3 0 0 1 .01-.336 1.479 1.479 0 0 1 .186-.024 1.26 1.26 0 0 1 .21.2 1.334 1.334 0 0 1 .149.044 1.832 1.832 0 0 1 .2-.312 2.319 2.319 0 0 1 .156.275 1.7 1.7 0 0 1 .242-.148l.169.172a2.177 2.177 0 0 1 .245-.011l.213.093.19.145.111.29.194.147.189.146.351-.087.127.248.051.334.208.122.253.07.087.265.342-.012a.471.471 0 0 0 .005.106l.013.074s-.031.16.735-.6c.176-.212.31-.352.37-.424z" fill="#fff"/><path d="m38.693 51.558c.124.2.078.059.078.059l.09-.118.208-.068a2.476 2.476 0 0 1 .265.139l.153-.2a1.669 1.669 0 0 1 .213.163 2.029 2.029 0 0 1 .175-.172 1.184 1.184 0 0 1 .145.266l.136-.051a.532.532 0 0 1 .1.017c.023.006.047.013.07.021s0 .058 0 .08a.732.732 0 0 1 .283-.069.8.8 0 0 1 -.282.187.493.493 0 0 1 .221.062.6.6 0 0 1 .065.147l-.137.136a1.439 1.439 0 0 1 -.056.172l-.181.125a2.14 2.14 0 0 1 .021.253c-.011.077-.025.158-.044.24l-.282.074-.042.286-.287.08.023.356-.328.029-.066.283-.38-.044.054.428-.249.094-.353-.044-.057.327-.23.1h-.3l-.022.408-.229.1-.275.022-.168.22a1.691 1.691 0 0 1 -.274-.049l-.2.06a2.977 2.977 0 0 1 -.114.316 2.151 2.151 0 0 1 -.269-.287 1.534 1.534 0 0 1 -.156.112.674.674 0 0 1 -.151-.04 1.341 1.341 0 0 1 -.161.222.622.622 0 0 1 -.016-.281.665.665 0 0 1 -.2.154.668.668 0 0 1 -.022-.125.924.924 0 0 1 .086-.176.427.427 0 0 1 -.194-.062 1.286 1.286 0 0 1 .052-.181l-.067-.137a.217.217 0 0 1 -.1-.127.632.632 0 0 1 -.011-.175l.05-.192a1.074 1.074 0 0 1 .178-.149 1.166 1.166 0 0 1 .086-.2l.137-.18.255-.1a2.069 2.069 0 0 1 .122-.2v-.332l.185-.17.181-.173.283-.069.181-.173.158-.207.256-.088.033-.367.253-.092.163-.213.265-.066.161-.21.178-.191c.037-.047.135.006.112-.146 0 0 .036-.047-.072-.264l-.059-.1-.113-.183c-.07-.112-.1-.138-.116-.136a.679.679 0 0 0 -.183.128l-.251.13-.213.181-.289.069-.311.047-.173.227-.287.087-.176.23-.2.2-.242.148-.093.311-.29.1-.265.142-.111.286a3.1 3.1 0 0 0 -.309.123l-.161.253-.127.285a2.252 2.252 0 0 0 -.323.177c-.005.125-.011.238-.006.366l.012.363a2.664 2.664 0 0 0 -.31.3 1.776 1.776 0 0 0 -.06.422 1.218 1.218 0 0 0 .315.333 1.779 1.779 0 0 0 -.174.4 2.309 2.309 0 0 0 .339.26 1.93 1.93 0 0 0 .185.34 1.986 1.986 0 0 0 .264.315 1.813 1.813 0 0 0 .281.371 2.242 2.242 0 0 0 .4.177 1.958 1.958 0 0 0 .429-.209 2.119 2.119 0 0 0 .346-.031 3.437 3.437 0 0 0 .4.3 3.037 3.037 0 0 0 .259-.339l.316-.076c.13.041.266.081.4.111a2.5 2.5 0 0 0 .184-.332l.168-.275.419.154.08-.406.352.017.129-.309.383.04.036-.419.34-.03.181-.307.38-.005.084-.328.174-.227h.41l.177-.231.145-.254-.048-.407.209-.217a3.487 3.487 0 0 0 .372-.128c.124-.05.135-.177.2-.265a3.929 3.929 0 0 0 -.149-.436 2.367 2.367 0 0 0 .345-.241 3.067 3.067 0 0 0 -.108-.4 2.1 2.1 0 0 0 .133-.376 2.079 2.079 0 0 0 -.15-.394 1.723 1.723 0 0 0 -.14-.387 2 2 0 0 0 -.2-.36 1.912 1.912 0 0 0 -.191-.452 2.217 2.217 0 0 0 -.362-.278 2.5 2.5 0 0 0 -.417-.157 1.914 1.914 0 0 0 -.424.175 3.472 3.472 0 0 0 -.341-.138 3.634 3.634 0 0 0 -.375-.211c-.119.022-.23.055-.339.084a1.18 1.18 0 0 0 -.3.181c-.1.065-.234-.024-.353-.023a3.006 3.006 0 0 0 -.213.342.821.821 0 0 0 -.121-.018l-.092-.006s-.18-.067.3.834c.173.292.264.447.318.532z" fill="#fff"/><path d="m33.612 47.343c.144.19.081.062.081.062a.681.681 0 0 0 .083-.109l.184-.085a2.53 2.53 0 0 1 .262.12l.145-.189a1.328 1.328 0 0 1 .217.138 2.216 2.216 0 0 1 .14-.183.914.914 0 0 1 .135.259l.1-.07s.042 0 .052 0 0 0 .036 0a.178.178 0 0 1 -.039.051.549.549 0 0 1 .28-.092 1.168 1.168 0 0 1 -.3.17.548.548 0 0 1 .224.086.911.911 0 0 1 .071.167l-.132.173a1.9 1.9 0 0 1 -.038.2l-.156.148.069.247v.246l-.262.132.033.272-.257.126c.039.11.078.221.114.335l-.314.087.01.282-.376.029.162.4-.213.138-.346.025.03.319-.188.14-.285.035c.03.13.057.263.08.394l-.187.126a2.109 2.109 0 0 1 -.245.032 2.147 2.147 0 0 1 -.09.222 2.529 2.529 0 0 1 -.249-.046l-.152.051a1.659 1.659 0 0 1 -.05.3c-.068-.1-.161-.2-.245-.3-.058.041-.125.086-.182.118l-.181-.031a2.07 2.07 0 0 1 -.176.231.973.973 0 0 1 -.077-.279.715.715 0 0 1 -.15.2.244.244 0 0 1 0-.1.339.339 0 0 1 .106-.139.239.239 0 0 1 -.15.035.3.3 0 0 0 .08-.105.574.574 0 0 1 -.056-.144 1.22 1.22 0 0 1 -.083-.193c-.009-.066 0-.137-.007-.209a1.062 1.062 0 0 1 .036-.215l.145-.19c.012-.071.032-.147.052-.223l.1-.208.22-.148.068-.222-.087-.314.145-.19.145-.19.249-.121.142-.186.085-.231.213-.138-.065-.35.221-.127.094-.235.247-.084.123-.2.137-.18c.034-.044.127.011.075-.147-.017-.013.031-.041-.133-.29l-.082-.116-.152-.2c-.095-.122-.132-.15-.147-.145a.474.474 0 0 0 -.165.159 1.571 1.571 0 0 0 -.219.181l-.168.22-.257.132-.28.113-.112.259-.255.143-.1.259-.137.229-.19.192v.314l-.25.158-.216.184-.035.285-.267.167-.1.259-.06.276c-.092.064-.187.125-.279.2.018.11.035.215.062.327s.034.208.058.318a3.164 3.164 0 0 0 -.3.246 3.007 3.007 0 0 0 -.072.326 2.757 2.757 0 0 0 .274.344 1.193 1.193 0 0 0 -.216.437 1.634 1.634 0 0 0 .363.326 1.448 1.448 0 0 0 .235.346 1.312 1.312 0 0 0 .323.28 3.206 3.206 0 0 0 .331.318c.124.041.249.076.377.105a3.29 3.29 0 0 0 .357-.264l.3-.046c.113.113.224.214.345.323l.259-.339a2.286 2.286 0 0 0 .345-.085 3.72 3.72 0 0 0 .429.092c.06-.121.111-.238.159-.357a2.014 2.014 0 0 0 .145-.308c.147.032.3.066.466.093v-.423c.121-.01.234-.031.35-.05l.053-.329.382-.036c-.021-.14-.042-.274-.07-.414l.319-.094c.007-.107.011-.217.012-.324l.367-.073v-.325l.116-.244.4-.081.125-.248.079-.272-.134-.394.148-.236c.112-.055.223-.109.334-.169l.15-.267c-.072-.13-.148-.269-.235-.395.108-.078.2-.155.3-.244-.048-.112-.1-.227-.154-.339a2.631 2.631 0 0 0 .12-.332 2.613 2.613 0 0 0 -.139-.353 1.93 1.93 0 0 0 -.116-.374 1.529 1.529 0 0 0 -.192-.367 1.653 1.653 0 0 0 -.181-.466 1.924 1.924 0 0 0 -.373-.286 2.146 2.146 0 0 0 -.427-.144 1.864 1.864 0 0 0 -.418.217 2.9 2.9 0 0 0 -.353-.114 3.722 3.722 0 0 0 -.376-.169 2.823 2.823 0 0 0 -.322.119c-.1.065-.182.14-.273.21a3.324 3.324 0 0 0 -.346.009l-.089.179-.079.181a.44.44 0 0 0 -.12 0l-.087.009s-.172-.035.4.795z" fill="#fff"/><path d="m26.06 36.042c-.148-.059-.3-.112-.453-.159-.086-.122-.175-.239-.269-.35a3.647 3.647 0 0 0 -.412-.165 2.924 2.924 0 0 1 -.377-.208c-.118-.058-.27-.147-.411-.207a4.357 4.357 0 0 0 -.391-.326 4.778 4.778 0 0 0 -.471-.135 4.333 4.333 0 0 0 -.5-.056 4.172 4.172 0 0 0 -.471.252 5.735 5.735 0 0 1 -.981-.186 4.013 4.013 0 0 0 -.459.186 4.469 4.469 0 0 0 -.4.278 4.907 4.907 0 0 0 -.478.119 3.915 3.915 0 0 0 -.264.458l-.157.036-.123.035c-.013.017-.231.006.384.713l-.024-.019-.135-.1c-.085-.065-.112-.086-.131-.068a1.791 1.791 0 0 0 -.22.224 3.643 3.643 0 0 0 -.317.3 3.3 3.3 0 0 0 -.259.339c-.109.093-.229.173-.337.279a4.25 4.25 0 0 0 -.352.3 2.439 2.439 0 0 0 -.151.422 2.747 2.747 0 0 0 -.245.419 2.453 2.453 0 0 0 -.021.484 2.8 2.8 0 0 0 -.008.467c-.01.153 0 .3 0 .46s.147.279.227.4v.441l.051.425.233.356.018.433.177.366a4.484 4.484 0 0 0 .245.381l.078.5q.387.294.795.555l.211.462a1.809 1.809 0 0 0 .376.287c.181.01.355.014.526.016a4.051 4.051 0 0 0 .322.407 2.819 2.819 0 0 0 .493-.047l.44.127a2.15 2.15 0 0 0 .436.1l.442.188c.151.019.3.011.455.015a4.339 4.339 0 0 0 .423-.278l.421-.1a3.566 3.566 0 0 0 .511.224l.348-.378a3.177 3.177 0 0 0 .417-.137l.51.035.3-.4a2.985 2.985 0 0 0 .282-.37c.181 0 .366-.01.557-.025a3.107 3.107 0 0 0 .141-.521l.452-.191c.052-.159.091-.323.131-.48a2.712 2.712 0 0 0 .457-.274q-.021-.289-.064-.548a2.054 2.054 0 0 0 .324-.424 2.929 2.929 0 0 0 -.092-.533 3.453 3.453 0 0 0 .23-.511 3.052 3.052 0 0 0 -.247-.457 4.29 4.29 0 0 0 -.156-.442c.038-.176.072-.354.093-.536-.07-.14-.137-.277-.22-.415a3.956 3.956 0 0 0 -.263-.358c-.157-.076-.313-.146-.469-.208l-.21-.365-.069-.472-.231-.365c-.17-.044-.346-.081-.518-.116a3.934 3.934 0 0 0 -.15-.559z" fill="#fff"/><path d="m52 88.654c.3.054.405-.276.479-.359l1.163-1.259 1.843-1.813 2-1.7 1.715-1.966 1.948-1.733 1.676-2 1.983-1.707 1.71-1.968 1.745-1.937 1.724-1.952.88-.939 1.405-1.542.07-.091-.841-.923c-.121-.13-.29-.324-.37-.395l-.227-.222-.923-.9-1.364-2.242-1.8-1.864-1.709-1.979-1.551-2.088-1.646-2.018-1.574-2.086q-.889-.943-1.825-1.884c-.6-.624-1.22-1.256-1.846-1.87q-.831-1.021-1.694-2-1-.863-2.026-1.685-.9-.933-1.849-1.866l-2.169-1.476-1.847-1.848-2.1-1.535-1.774-1.894-2.221-1.394-1.9-1.771-1.774-1.894-2.1-1.534-1.9-1.769-1.789-1.874-2.158-1.484-1.864-1.772-1.99-2.031-.862-.756a.673.673 0 0 0 -.108-.083l-.088.116-.2.214-.39.427c-.609.662-.792.887-1.094 1.232l-1.928 1.745-1.812 1.87-1.592 2.081-2.06 1.647-1.7 1.97-1.8 1.877-1.576 2.091-1.961 1.722-1.556 2.1-1.8 1.877-.931.9-.818.846-.452.471c-.142.079.027.154.074.233l.207.235.926.9.488.443.952.863 1.743 1.935 1.858 1.749 1.907 1.77 1.866 1.81 1.836 1.813 1.774 1.894 1.866 1.809 1.829 1.824 1.745 1.931 1.888 1.788 2.045 1.624 1.844 1.8 1.87 1.808 1.758 1.915 1.958 1.858 1.922 1.7 1.808 1.85 2.119 1.541 1.823 1.83 1.984 1.684c.6.624 1.215 1.22 1.85 1.83l2 1.667 1.993 1.67a9.166 9.166 0 0 0 1.416 1.169c.081.063.486.426.66.226a.286.286 0 0 0 .058-.117 1.479 1.479 0 0 0 .058-.245.428.428 0 0 0 -.13-.364c-.473-.463-.982-.885-1.477-1.328l-1.9-1.78-1.93-1.74-1.8-1.857-1.787-1.875-1.964-1.7-1.8-1.857-1.964-1.7-1.911-1.73-1.836-1.814-2.018-1.645-1.774-1.895-1.792-1.871-1.954-1.715-1.735-1.945-1.865-1.785-1.9-1.778-1.719-2.008-1.973-1.7-1.949-1.722-1.641-2.025-1.795-1.868-2.038-1.642-1.6-2.07-.992-.845-.477-.4c-.05-.039-.128-.071-.2-.119s-.008-.109.045-.164l.208-.223.869-.946 1.768-1.9 1.873-1.793 1.779-1.89 1.542-2.107 1.743-1.928 2.064-1.644 1.556-2.1 1.793-1.852 2.006-1.688 1.629-2.031.418-.5.1-.126.029-.037.065-.085.072-.094c.023-.031.062-.082.078-.054l.193.121a.665.665 0 0 0 .09.149l.2.259.412.514.825 1.029 2.144 1.524 1.774 1.894 2.074 1.587 1.743 1.935 2.174 1.47 1.828 1.866 2.094 1.548 1.8 1.91 2.112 1.53 2.02 1.643 1.774 1.894 1.963 1.647q.988.814 1.961 1.651c.7.491 1.389.993 2.093 1.526q.913.914 1.792 1.871c.543.694 1.041 1.371 1.542 2.071q.831.98 1.64 1.985l1.911 1.772 1.437 2.174 1.787 1.878 1.548 2.092 1.727 1.956 1.641 2.013 1.192 1.5-.016.02-.18.131-.026.034-.119.113-.232.226-.933.9-1.746 1.888-1.744 1.915-1.561 2.089-1.86 1.8-1.959 1.725-1.756 1.88-1.764 1.954-1.918 1.757-1.67 2-.64.521-.505.408c-.124.1-.828.554-.023 1.342a1.075 1.075 0 0 0 .538.338z" fill="#fff"/><path d="m22.44 55.52c-.172.3-.022.127-.007.128l.2.016.217.166.033.434.337-.012.052.395.363-.039-.021.484.289.065.229.143.232.139.154.242.482-.168-.111.566.426-.079.282.087.107.3.217.165.095.3.352.017.3.072.018.391.356.019.028.371.471-.1-.033.436.365.022-.114.514.577-.192.1.293-.08.477.438-.047.146.246.008.382.547-.146.161.232.068.325.329.069.013.376.173.223.478-.069-.168.549.292.11.149.248.442-.038-.083.474.446-.035.119.279.022.372.368.039.1.294.26.145.31.092.251.15.227.173.112.29.23.176.206.219.067.341.23.176.431-.036.2.209.2.2.062.354.212.194.27.132.118.3.474-.1.127.29.3.1.1.324.269.126.264.132c.055.042 0 .207.2.07.023-.03.057.044.366-.332l.387-.5c.15-.2.192-.251.174-.27s-.141-.048-.209-.079l-.22-.168-.265-.117-.118-.289-.074-.331-.278-.1-.095-.3-.287-.1-.22-.168-.154-.241-.364-.016-.074-.325-.108-.287-.309-.08-.036-.361-.224-.171-.253-.14-.008-.382-.363-.031-.342-.052.045-.438-.161-.231-.483.082.087-.471-.426.023-.168-.23-.154-.241-.013-.376-.157-.238-.472.063-.227-.174.183-.569-.489.077-.168-.23.083-.474-.418.014-.365-.043.177-.569-.518.109.025-.427-.389-.018.077-.479-.534.129.006-.408-.388-.013.073-.481h-.4l-.23-.177.109-.528-.231-.177-.27-.131-.52.139-.172-.239.038-.483-.162-.253-.545.179.028-.472-.418.04-.112-.316-.322-.064-.233-.177-.207-.207-.046-.411-.194-.224-.234-.179-.489.163-.125-.321-.036-.452a1.731 1.731 0 0 0 -.283-.115l-.352-.011-.15-.3-.441.134-.019-.137-.017-.11s.037-.267-.8 1.043c-.194.317-.322.542-.403.647z" fill="#fff"/><path d="m51.736 1.646-.262.16-3.607 1.594-2.6 1.128-2.754.875-2.557 1.197-2.236 1.858-2.478 1.37-2.911.61-2.171 1.939-2.491 1.317-2.765.877c-.73.623-1.477 1.228-2.193 1.868l-1.089.87c-.129.111-.482.362-.776.578l-.864.638.03.094a3.982 3.982 0 0 0 .3 1.262c.149.227.309.51.479.78l.058.1.031.051-.12.031-.241.063-.98.255-.513.144a.885.885 0 0 0 -.115.031l.017.013.018.046.32.782.2.284a2.759 2.759 0 0 0 .174.229l.239.264.479.533.959 1.077.887 2.71 1.666 2.306.77 2.77 1.916 2.18.916 2.7 1.644 2.332.8 2.758 1.656 2.315 1.363 2.465.709 2.809 1.325 2.481 1.416 2.454 1.91 2.18 1.244 2.531.849 2.745 1.25 2.531 1.991 2.13.877 2.75 1.776 2.251 1.2 2.58 1.65 2.337c.508.824.991 1.591 1.581 2.456a12.792 12.792 0 0 0 1.381 1.8l.772.773.112.086.054.041.055-.035.244-.136.487-.278 2.04-.932c.511-.226.882-.367 1.326-.554.8-.462 1.6-.886 2.415-1.316s1.62-.91 2.427-1.319c.719-.61 1.459-1.2 2.208-1.8l2.634-.993 2.74-.773 2.5-1.307 2.436-1.478 2.673-1.043 1.143-.9 1.128-.927c.291-.1.587-.184.873-.3l.685-.25c.163-.058 1.105-.229-.078-2.208l.058.044a2.779 2.779 0 0 0 .32.283.449.449 0 0 0 .537.05 2.135 2.135 0 0 0 .99-1.294 2.773 2.773 0 0 0 -.159-1.513l-.431-1.367-.481-1.33c-.351-.876-.7-1.748-1.079-2.614l-.823-2.715-.783-2.747c-.418-.858-.813-1.7-1.228-2.552l-.872-2.708-1.291-2.523q-.581-1.293-1.191-2.572l-1.068-2.628-1.567-2.389q-.471-1.343-.971-2.677l-1.069-2.634-1.53-2.4q-.475-1.353-.976-2.692l-1.4-2.465-1.488-2.4q-.481-1.357-1.007-2.694l-1.787-2.243-1.772-2.231q-.479-1.365-.994-2.717l-1.44-2.444-2.113-2.014c-.317-.92-.654-1.828-1-2.735l-.51-.513-.803-.952-.764-.9-.363-.417-.089-.1c-.018-.037-.044-.073-.088-.037z" fill="#e12729"/><path d="m60.645 47.449c.224-.124.067-.088.07-.092a.664.664 0 0 0 -.129-.141l-.122-.255.059-.357-.278-.17.012-.346-.3-.149.057-.391-.25-.192-.194-.217-.2-.208-.144-.261-.416-.018c.013-.15.02-.3.018-.453-.13-.019-.257-.035-.383-.046s-.2-.092-.3-.133a3.054 3.054 0 0 0 -.218-.264 3.355 3.355 0 0 0 -.3-.157 2.789 2.789 0 0 0 -.294-.225 2.821 2.821 0 0 0 -.4.038 2.662 2.662 0 0 0 -.368.046 2.486 2.486 0 0 0 -.361-.19 2.784 2.784 0 0 0 -.351.193 2.308 2.308 0 0 0 -.413-.058 2.326 2.326 0 0 0 -.245.4 1.913 1.913 0 0 0 -.453.051 1.867 1.867 0 0 0 -.171.407 1.9 1.9 0 0 0 -.463.183 1.945 1.945 0 0 0 .178.512 2.352 2.352 0 0 0 -.16.35 2.836 2.836 0 0 0 -.28.366 2.329 2.329 0 0 0 .271.347c0 .113.009.227.017.336a1.7 1.7 0 0 1 -.079.363 4.015 4.015 0 0 0 .406.172l.084.284.011.315.248.189a.544.544 0 0 1 -.02.152l-.052.068-.02.027a.838.838 0 0 1 .328.069.983.983 0 0 1 -.42-.048.264.264 0 0 1 .088.067.193.193 0 0 1 -.054-.041.471.471 0 0 1 .117.213 1.035 1.035 0 0 1 -.194-.224c0 .082-.1.2-.143.3h-.272l-.3-.1-.2.228-.278-.03-.236.119-.221.17-.241.111-.248.079-.276-.04-.117.04-.049.022a.224.224 0 0 1 -.073 0 .335.335 0 0 1 .017-.169l-.044.057a.427.427 0 0 1 -.191.166l-.005-.114a1.245 1.245 0 0 0 -.086-.211v-.3l-.119-.237-.169-.215-.028-.279-.358-.129-.028-.279-.189-.2v-.29l-.163-.215a1.456 1.456 0 0 0 -.171-.212c-.051-.039.017-.142-.147-.139 0 0-.032-.056-.293.061l-.12.058-.211.107c-.128.069-.16.1-.159.11s.065.119.094.179a1.238 1.238 0 0 0 .088.25l.154.22.016.281-.021.3.178.211v.288l.183.21.122.234.06.265.247.19a1.47 1.47 0 0 0 0 .338l.112.5a3.237 3.237 0 0 0 .287.327l.051.3c.015.043.01.12.038.141l.1.023.507-.15.466-.18.229.051c.06.02.106.044.16.064l.224-.243.226-.218.325.172.271-.039.184-.359.338.2.194-.3.266-.054.269-.042a1.572 1.572 0 0 0 .339.077c.149-.041.3-.067.458-.122a1.394 1.394 0 0 0 .233-.4 1.169 1.169 0 0 0 .269-.261 1.353 1.353 0 0 0 .528-.22 1.369 1.369 0 0 0 -.232-.489 1.526 1.526 0 0 0 -.063-.4 1.667 1.667 0 0 0 .059-.492l-.227-.173a.793.793 0 0 0 -.161-.07l-.254-.146c.088-.115.141-.247.222-.367l-.371-.091a2.539 2.539 0 0 1 .121-.278 1.264 1.264 0 0 0 -.23-.157 1.784 1.784 0 0 1 .221-.239 2.259 2.259 0 0 1 -.327-.142.841.841 0 0 1 .2-.157 1.1 1.1 0 0 1 -.147-.172.77.77 0 0 1 .283-.02.59.59 0 0 1 -.089-.192.58.58 0 0 1 .078-.1.992.992 0 0 1 .25.192l.084-.054a.622.622 0 0 1 .1-.087 1.27 1.27 0 0 1 .122-.315 1.377 1.377 0 0 1 .182.043 1.25 1.25 0 0 1 .127.263 1.43 1.43 0 0 1 .125.1 1.732 1.732 0 0 1 .292-.227 2.05 2.05 0 0 1 .051.312 2 2 0 0 1 .276-.052l.1.222c.075.02.155.043.235.072l.167.16.144.191.008.302.123.212.144.191.359.044.033.272-.069.329.155.183.21.161-.008.278.327.106a.491.491 0 0 0 -.035.1l-.012.071s-.1.129.9-.314c.267-.154.43-.233.518-.284z" fill="#fff"/><path d="m53.747 38.776c.043.232.05.082.059.078l.134-.07.22.007a2.632 2.632 0 0 1 .2.223l.221-.121a1.739 1.739 0 0 1 .154.22 2.142 2.142 0 0 1 .224-.1 1.157 1.157 0 0 1 .046.3h.143l.081.062c.021.015.041.03.061.047a.246.246 0 0 1 -.027.076.733.733 0 0 1 .291.035.8.8 0 0 1 -.327.077.483.483 0 0 1 .183.14.711.711 0 0 1 .012.16l-.178.084a1.244 1.244 0 0 1 -.109.142l-.214.056a2.259 2.259 0 0 1 -.068.244l-.121.214-.29-.029-.136.256-.295-.022-.1.342-.322-.085-.159.244-.342-.171-.1.421-.267.005-.317-.162-.165.287-.253.022-.282-.109-.164.375-.25.018-.265-.074-.225.167a1.771 1.771 0 0 1 -.241-.142l-.2-.009a2.78 2.78 0 0 1 -.2.267 2.12 2.12 0 0 1 -.154-.36 1.5 1.5 0 0 1 -.185.052.645.645 0 0 1 -.122-.093 1.289 1.289 0 0 1 -.237.141.631.631 0 0 1 .083-.27.637.637 0 0 1 -.236.077.6.6 0 0 1 .022-.127.982.982 0 0 1 .143-.138.429.429 0 0 1 -.162-.124 1.185 1.185 0 0 1 .114-.15l-.025-.159c-.011-.041-.057-.086-.047-.148a.682.682 0 0 1 .048-.168l.122-.159c.066-.03.148-.054.215-.078a1.226 1.226 0 0 1 .151-.163l.194-.126.273-.006a2.029 2.029 0 0 1 .184-.149l.107-.316.23-.1.23-.1.287.032.231-.1.211-.15h.272l.156-.332h.268l.22-.16.268.028.229-.131.231-.119c.055-.022.126.054.159-.088.013-.017.059-.014.024-.277l-.02-.122-.04-.214c-.03-.13-.05-.167-.062-.165s-.144.04-.215.056l-.278.034-.261.095-.3-.033-.307-.063-.245.146-.3-.015-.237.168-.252.119-.278.055-.2.258h-.311l-.3.042-.186.244c-.11 0-.222 0-.334.008l-.238.178-.217.226a2.254 2.254 0 0 0 -.364.055c-.048.119-.092.219-.134.343l-.115.347a2.638 2.638 0 0 0 -.4.178 1.754 1.754 0 0 0 -.2.383 1.216 1.216 0 0 0 .184.42 1.823 1.823 0 0 0 -.3.311 2.3 2.3 0 0 0 .249.377 1.9 1.9 0 0 0 .057.382 1.852 1.852 0 0 0 .143.389 1.761 1.761 0 0 0 .138.444 2.183 2.183 0 0 0 .308.3 1.968 1.968 0 0 0 .465-.046 2.264 2.264 0 0 0 .335.089 3.342 3.342 0 0 0 .263.422 2.945 2.945 0 0 0 .381-.246l.321.036.339.26a2.619 2.619 0 0 0 .287-.248l.253-.2.344.3.222-.368.326.136.228-.249.348.17.189-.394.331.087.189-.247.358.129.2-.268.242-.148.389.137.252-.146.224-.188.1-.4.272-.13c.129.007.26.011.394.005s.192-.111.287-.172a4.222 4.222 0 0 0 .011-.464 2.361 2.361 0 0 0 .406-.109 3.152 3.152 0 0 0 .036-.413 2.147 2.147 0 0 0 .244-.318 2.136 2.136 0 0 0 0-.423 1.74 1.74 0 0 0 0-.408 2.177 2.177 0 0 0 -.063-.408 1.946 1.946 0 0 0 -.018-.476 2.252 2.252 0 0 0 -.246-.381 2.45 2.45 0 0 0 -.339-.259 1.991 1.991 0 0 0 -.456.021 3.374 3.374 0 0 0 -.274-.247 3.689 3.689 0 0 0 -.287-.327 3.446 3.446 0 0 0 -.348-.035 1.223 1.223 0 0 0 -.345.064 3.176 3.176 0 0 0 -.326-.142 3.081 3.081 0 0 0 -.32.249.818.818 0 0 0 -.095-.072l-.084-.038c-.017-.013-.153-.117 0 .886a3.831 3.831 0 0 0 .064.519z" fill="#fff"/><path d="m50.42 33.077c.072.228.059.083.068.079a.667.667 0 0 0 .118-.07 1.7 1.7 0 0 1 .2-.016c.07 0 .156.12.21.2a.755.755 0 0 1 .191-.144 1.337 1.337 0 0 1 .155.2 2.036 2.036 0 0 1 .19-.128.857.857 0 0 1 .041.289l.115-.03.041.031.027.021a.158.158 0 0 1 -.039.05.56.56 0 0 1 .293.01 1.126 1.126 0 0 1 -.336.06.563.563 0 0 1 .19.145 1.039 1.039 0 0 1 .01.185l-.179.121a1.88 1.88 0 0 1 -.1.172l-.2.084-.015.264-.075.233-.288.032-.062.27-.285.029c0 .118 0 .234-.005.35l-.326-.023-.089.27-.363-.1.017.427c-.079.02-.165.041-.245.054l-.333-.1-.081.309-.222.066-.283-.066c-.016.133-.034.269-.06.394l-.218.054c-.084-.01-.163-.033-.241-.05-.045.065-.094.129-.145.189a2.16 2.16 0 0 0 -.221-.125h-.159a1.627 1.627 0 0 1 -.152.27c-.033-.111-.082-.245-.126-.37-.067.019-.147.038-.212.053l-.161-.091a2.155 2.155 0 0 1 -.244.157.969.969 0 0 1 .022-.289.734.734 0 0 1 -.207.131.241.241 0 0 1 .033-.093.329.329 0 0 1 .157-.078.247.247 0 0 1 -.154-.016.323.323 0 0 0 .116-.061.544.544 0 0 1 0-.156 1.113 1.113 0 0 1 -.013-.208c.016-.063.047-.131.065-.2s.089-.116.106-.188l.207-.116.137-.179.165-.159.259-.065.143-.187.027-.323.191-.144.19-.144.28-.028.187-.147.151-.2.245-.054.06-.352.249-.046.153-.2h.262l.185-.143.183-.134c.034-.044.117.051.122-.111.013-.017.047-.018-.026-.316l-.04-.137-.075-.24c-.049-.146-.076-.188-.088-.186a.463.463 0 0 0 -.21.092 1.574 1.574 0 0 0 -.267.1c-.079.053-.153.109-.228.164l-.285.035-.3.01-.192.2-.285.05-.169.221-.209.167-.243.115-.111.292-.29.063-.266.1-.133.258-.312.07-.168.22-.151.239c-.106.026-.218.053-.326.089-.022.112-.042.216-.057.327s-.042.21-.055.318a3.262 3.262 0 0 0 -.363.13 2.978 2.978 0 0 0 -.182.28 2.8 2.8 0 0 0 .141.42 1.206 1.206 0 0 0 -.351.339 1.648 1.648 0 0 0 .215.422 1.5 1.5 0 0 0 .1.406 1.31 1.31 0 0 0 .209.374 3.039 3.039 0 0 0 .214.422c.1.085.2.164.312.239a3.336 3.336 0 0 0 .416-.117l.3.061c.065.147.134.28.214.422l.378-.248a2.191 2.191 0 0 0 .352.038 1.6 1.6 0 0 0 .362.229c.1-.092.186-.186.27-.282a2.031 2.031 0 0 0 .242-.24 3.468 3.468 0 0 0 .4.242l.161-.414c.116.03.229.052.345.076l.165-.293.372.1c.03-.138.058-.273.076-.409l.334.019c.045-.1.083-.2.124-.3l.37.057.108-.31.194-.19.4.062.2-.191.168-.22-.002-.417.219-.166c.123-.013.243-.023.371-.043l.233-.2c-.023-.146-.047-.3-.081-.442.132-.039.246-.076.37-.126-.007-.124-.014-.247-.031-.373a2.457 2.457 0 0 0 .215-.281 2.576 2.576 0 0 0 -.008-.383 1.944 1.944 0 0 0 .012-.386 1.536 1.536 0 0 0 -.051-.41 1.67 1.67 0 0 0 0-.484 1.889 1.889 0 0 0 -.248-.377 2.142 2.142 0 0 0 -.356-.273 1.841 1.841 0 0 0 -.461.056 2.918 2.918 0 0 0 -.3-.226 3.635 3.635 0 0 0 -.308-.3 3.289 3.289 0 0 0 -.344 0c-.112.027-.219.069-.327.105a3.369 3.369 0 0 0 -.327-.106l-.143.138-.12.156a.438.438 0 0 0 -.109-.047l-.085-.022c-.017-.013-.139-.106.1.885z" fill="#fff"/><path d="m45.087 17.436a4.22 4.22 0 0 0 -.439-.212 4.1 4.1 0 0 0 -.529.073 5.66 5.66 0 0 1 -.86-.513c-.164 0-.326 0-.485.01a4.533 4.533 0 0 0 -.471.124 4.785 4.785 0 0 0 -.492-.059 3.857 3.857 0 0 0 -.405.34l-.161-.022-.126-.01c-.02-.016-.217-.075.118.8l-.02-.016-.081-.153c-.052-.094-.079-.115-.1-.109a1.851 1.851 0 0 0 -.283.138c-.131.045-.254.1-.384.158a3.313 3.313 0 0 0 -.357.215 3.539 3.539 0 0 0 -.41.149 4.465 4.465 0 0 0 -.434.167 2.337 2.337 0 0 0 -.3.351 2.641 2.641 0 0 0 -.373.311 2.566 2.566 0 0 0 -.184.444 2.854 2.854 0 0 0 -.154.42c-.064.139-.108.288-.155.419.024.158.044.308.074.459l-.155.419-.1.418.095.417-.144.427.041.4a4.4 4.4 0 0 0 .1.435l-.1.49a3.789 3.789 0 0 0 .277.411 3.821 3.821 0 0 0 .279.38l.04.5a1.824 1.824 0 0 0 .232.4c.165.072.328.133.488.191a4.449 4.449 0 0 0 .163.489 2.934 2.934 0 0 0 .479.125l.339.259a2.166 2.166 0 0 0 .362.229l.351.328c.137.067.28.112.412.164a4.57 4.57 0 0 0 .492-.117l.433.052a3.586 3.586 0 0 0 .405.384l.459-.234a3.23 3.23 0 0 0 .44.014l.473.217.413-.28a3.01 3.01 0 0 0 .392-.238q.252.091.534.173a3.2 3.2 0 0 0 .31-.44l.5-.03.3-.4a2.669 2.669 0 0 0 .523-.1c.051-.186.091-.365.128-.541a1.976 1.976 0 0 0 .463-.262 2.9 2.9 0 0 0 .094-.53 3.426 3.426 0 0 0 .391-.4 3.076 3.076 0 0 0 -.074-.514 4.527 4.527 0 0 0 0-.466 3.284 3.284 0 0 0 .272-.468c-.015-.157-.032-.31-.06-.455s-.085-.29-.128-.43-.242-.245-.37-.359l-.076-.413.1-.463-.092-.42c-.139-.106-.3-.2-.443-.285.015-.16.033-.324.046-.5l-.38-.291c-.039-.145-.086-.29-.14-.435-.122-.093-.22-.211-.342-.31a2.338 2.338 0 0 1 -.282-.334 4.354 4.354 0 0 0 -.315-.332 4.273 4.273 0 0 0 -.254-.441 4.622 4.622 0 0 0 -.36-.318z" fill="#fff"/><path d="m53.541 78.186c.267.15.474-.121.574-.174l1.513-.777 2.372-1.082 2.454-.905 2.286-1.26 2.428-.962 2.261-1.306 2.452-.929 2.278-1.265 2.3-1.219 2.291-1.246 1.164-.587 1.85-.964.1-.059-.477-1.151c-.068-.165-.168-.413-.209-.5l-.139-.289-.57-1.172-.513-2.574-1.056-2.387-.924-2.431-.742-2.491-.858-2.456-.771-2.5q-.519-1.2-1.071-2.4c-.351-.8-.705-1.613-1.1-2.386q-.43-1.242-.917-2.474-.644-1.154-1.328-2.274-.531-1.2-1.1-2.386l-1.534-2.13-1.1-2.368-1.432-2.182-1.023-2.389-1.61-2.071-1.179-2.315-1.021-2.393-1.44-2.176-1.182-2.312-1.031-2.4-1.52-2.135-1.158-2.32-1.173-2.589-.548-1a.621.621 0 0 0 -.069-.113l-.132.066-.259.135-.515.267c-.8.414-1.048.562-1.448.783l-2.415.976-2.323 1.152-2.2 1.425-2.494.837-2.272 1.272-2.337 1.145-2.191 1.424-2.446.964-2.179 1.444-2.334 1.148-1.192.533-1.061.515-.586.288c-.16.028-.028.156-.01.245l.115.292.563 1.167.31.586.613 1.151.977 2.4 1.128 2.346 1.188 2.316 1.131 2.325 1.113 2.351 1.015 2.388 1.133 2.339 1.1 2.358.978 2.414 1.163 2.329 1.364 2.226 1.125 2.343 1.135 2.336 1.008 2.427 1.159 2.326 1.227 2.293 1.08 2.367 1.454 2.187 1.1 2.359 1.288 2.263c.344.8.73 1.574 1.113 2.351l1.299 2.254 1.3 2.252a9.186 9.186 0 0 0 .935 1.586c.078.06.313.568.556.426a.312.312 0 0 0 .078-.1 1.441 1.441 0 0 0 .15-.2.424.424 0 0 0 0-.386c-.286-.595-.621-1.168-.93-1.754l-1.169-2.324-1.21-2.28-1.064-2.377-1.032-2.4-1.268-2.271-1.062-2.372-1.264-2.272-1.187-2.311-1.11-2.348-1.333-2.239-1.018-2.391-1.048-2.381-1.247-2.281-.964-2.419-1.153-2.328-1.172-2.315-.921-2.435-1.27-2.272-1.242-2.287-.852-2.468-1.047-2.381-1.355-2.239-.784-2.486-.641-1.135-.31-.543a.961.961 0 0 1 -.149-.185c-.056-.074.032-.1.1-.135l.27-.137 1.153-.6 2.311-1.182 2.385-1.044 2.316-1.167 2.179-1.444 2.294-1.215 2.489-.83 2.179-1.444 2.339-1.136 2.453-.9 2.227-1.35.563-.321.136-.079.029-.038.088-.066.1-.071c.023-.03.062-.081.092-.021l.139.176a.61.61 0 0 0 .031.169l.106.312.211.623.421 1.247 1.493 2.157 1.005 2.412 1.4 2.207.986 2.425 1.517 2.133 1.077 2.377 1.44 2.176 1.039 2.406 1.46 2.165 1.338 2.232 1.028 2.4 1.3 2.226q.656 1.108 1.283 2.234c.494.71.978 1.425 1.443 2.151q.541 1.167 1.029 2.356.4 1.231.74 2.473.444 1.2.859 2.431l1.181 2.333.6 2.537 1.035 2.4.744 2.476.946 2.421.85 2.456.6 1.816-.015.02-.218.059-.044.009-.147.065-.3.134-1.187.526-2.305 1.187-2.3 1.2-2.173 1.437-2.374 1.059-2.421.946-2.291 1.182-2.287 1.227-2.424.977-2.252 1.307-.776.271-.614.212c-.148.053-.967.238-.48 1.245a1.082 1.082 0 0 0 .374.492z" fill="#fff"/><path d="m37.114 36.951c-.265.227-.08.1-.054.12l.184.082.134.247-.115.417.32.1-.088.39.353.087-.187.447.249.159.165.212.172.212.061.278.525.015-.3.493.426.068.237.182v.316l.143.234-.012.318.325.136.264.175-.118.372.329.139-.1.36.482.073-.182.4.336.144-.285.443.611.016v.314l-.231.414.428.107.053.283-.123.363.564.05.07.273-.048.329.289.178-.114.359.085.269.466.093-.35.457.247.19.056.284.44.128-.234.411.44.127.016.3-.108.358.332.163v.314l.194.223.257.2.186.228.148.242v.31l.163.237.108.266-.054.345.171.233.417.115.111.262.119.258-.063.349.132.257.211.215.012.321.484.07.018.314.247.189-.018.34.21.21.2.213c.054.042-.068.2.173.133.038-.009.03.066.459-.186l.194-.12.343-.217c.2-.133.262-.181.254-.192s-.118-.09-.176-.134l-.139-.241-.206-.2-.011-.309.044-.337-.237-.182.015-.321-.261-.2-.159-.228-.064-.281-.339-.141.044-.331-.007-.307-.254-.194.087-.352-.153-.236-.193-.218.122-.363-.328-.154-.3-.167.191-.39-.07-.274-.474-.083.252-.42-.409-.125-.076-.273-.062-.278.114-.359-.065-.281-.461-.1-.15-.238.363-.475-.474-.083-.079-.276.24-.418-.4-.133-.326-.163.363-.475-.524-.073.178-.4-.36-.147.238-.424-.538-.063.144-.384-.363-.143.229-.427-.371-.139-.169-.236.283-.461-.143-.249-.208-.218-.53-.061-.08-.281.193-.428-.064-.291-.577-.017.188-.436-.4-.105v-.335l-.282-.172-.157-.244-.127-.264.1-.4-.11-.278-.169-.242-.51-.036-.01-.345.124-.443a1.672 1.672 0 0 0 -.225-.2l-.325-.131-.038-.335-.463-.027.03-.138.022-.106c.016-.021.127-.236-1.108.7-.353.247-.554.411-.669.505z" fill="#fff"/><path d="m82.7.011-.3.062-3.932.3-2.833.195-2.864-.09-2.826.266-2.728 1-2.791.475-2.918-.4-2.695 1.11-2.8.419-2.9-.113c-.9.344-1.8.671-2.69 1.03l-1.323.453c-.159.061-.575.183-.923.287l-1.017.3v.1a3.947 3.947 0 0 0 -.133 1.289c.066.266.121.587.182.88l.021.113.01.057-.123-.008-.246-.022-1.01-.085-.507-.039a1.152 1.152 0 0 0 -.117-.009v.051l.025.852.1.334a2.431 2.431 0 0 0 .086.275l.138.331.274.667.547 1.336-.069 2.849.8 2.731-.2 2.869 1.076 2.693-.034 2.854.78 2.745-.176 2.869.783 2.748.444 2.811-.27 2.888.429 2.789.531 2.775 1.072 2.679.331 2.8-.112 2.87.324 2.8 1.175 2.677-.088 2.882.924 2.711.265 2.835.783 2.747c.2.947.4 1.831.673 2.842a12.808 12.808 0 0 0 .706 2.152l.446 1.008.063.129.032.062.069-.012.273-.048.563-.108 2.259-.2c.567-.039.955-.054 1.435-.084.9-.166 1.808-.3 2.714-.438s1.813-.3 2.728-.433c.884-.333 1.783-.639 2.678-.959l2.811-.057 2.85.193 2.8-.4 2.793-.582 2.873-.09 1.377-.473 1.374-.5c.308 0 .614.019.92.011l.729-.011c.171 0 1.113.153.655-2.1l.03.066a2.744 2.744 0 0 0 .2.372.448.448 0 0 0 .487.227 2.135 2.135 0 0 0 1.363-.9 2.776 2.776 0 0 0 .353-1.481l.047-1.431v-1.406c-.037-.942-.08-1.883-.157-2.807l.127-2.835.167-2.844q-.13-1.41-.3-2.818l.081-2.844-.38-2.811q-.115-1.409-.266-2.819l-.131-2.835-.683-2.773q.012-1.42-.019-2.846l-.115-2.835-.642-2.769q.014-1.424-.022-2.864l-.5-2.792-.606-2.775q.016-1.427-.051-2.875l-.936-2.709-.926-2.7c0-.965-.013-1.928-.029-2.89l-.548-2.794-1.315-2.619c.007-.972-.009-1.94-.029-2.912l-.309-.656-.443-1.176-.419-1.1-.2-.515-.05-.124c.003-.039-.011-.082-.075-.05z" fill="#e12729"/><path d="m75.837 46.151c.253-.043.091-.064.087-.072a.685.685 0 0 0 -.072-.18l-.032-.281.18-.318-.207-.256.128-.321-.236-.24.185-.347-.165-.255-.109-.271-.12-.264-.049-.3-.389-.159c.061-.135.118-.274.164-.411a1.9 1.9 0 0 0 -.346-.173c-.113-.055-.157-.153-.236-.224a3.262 3.262 0 0 0 -.119-.322q-.111-.131-.234-.249a2.869 2.869 0 0 0 -.192-.319 3.075 3.075 0 0 0 -.39-.094 2.83 2.83 0 0 0 -.363-.079 2.526 2.526 0 0 0 -.277-.3 2.765 2.765 0 0 0 -.394.064 2.29 2.29 0 0 0 -.383-.2 2.363 2.363 0 0 0 -.363.291 1.9 1.9 0 0 0 -.452-.11 1.848 1.848 0 0 0 -.29.316 1.944 1.944 0 0 0 -.511.028 1.946 1.946 0 0 0 0 .539 2.271 2.271 0 0 0 -.267.279 2.7 2.7 0 0 0 -.371.253 2.232 2.232 0 0 0 .13.406 3.194 3.194 0 0 0 -.1.323c-.029.108-.153.2-.2.316a4.229 4.229 0 0 0 .333.309l-.018.3-.1.3.163.265a.614.614 0 0 1 -.067.136.348.348 0 0 1 -.082.029l-.021.028a.85.85 0 0 1 .288.171.979.979 0 0 1 -.391-.191.252.252 0 0 1 .067.088.207.207 0 0 1 -.058-.044.468.468 0 0 1 .042.241 1 1 0 0 1 -.107-.275c-.029.08-.162.156-.237.233l-.256-.094-.247-.189-.267.145-.251-.122-.263.035-.265.087-.262.026-.259-.005-.245-.129h-.122l-.054.007a.246.246 0 0 1 -.055-.041.347.347 0 0 1 .071-.156.236.236 0 0 1 -.063.033.432.432 0 0 1 -.234.089l.034-.108a1.263 1.263 0 0 0 -.012-.23l.124-.275-.031-.261-.086-.259.067-.271-.3-.231.068-.27-.11-.257.1-.274-.08-.26a1.481 1.481 0 0 0 -.093-.259c-.023-.061.062-.13-.087-.18-.021-.016-.015-.065-.3-.04l-.135.015-.233.031c-.14.022-.184.037-.188.05s.021.134.029.2a1.226 1.226 0 0 0 0 .264l.071.259-.079.272-.119.275.1.257-.091.274.1.257.041.263-.034.269.185.249a1.426 1.426 0 0 0 -.113.317l-.053.5c.048.149.105.278.154.4l-.052.3c0 .046-.03.117-.014.145l.081.062.513.033.491-.014.2.126.136.1.29-.155.284-.132.249.271.265.053.291-.263.251.3.287-.221.27.04.269.049a1.545 1.545 0 0 0 .3.183 4.69 4.69 0 0 0 .477.037 1.4 1.4 0 0 0 .349-.3 1.14 1.14 0 0 0 .338-.155 1.331 1.331 0 0 0 .565-.035 1.357 1.357 0 0 0 -.054-.541 1.505 1.505 0 0 0 .075-.4 1.722 1.722 0 0 0 .221-.444l-.145-.245a.952.952 0 0 0 -.139-.107l-.191-.221c.109-.093.215-.19.334-.281l-.317-.211a2.553 2.553 0 0 1 .207-.222.918.918 0 0 1 -.174-.226 1.746 1.746 0 0 1 .287-.151 2.3 2.3 0 0 1 -.258-.246.861.861 0 0 1 .236-.083 1.054 1.054 0 0 1 -.08-.211.741.741 0 0 1 .272.079.593.593 0 0 1 -.019-.214.575.575 0 0 1 .1-.086.984.984 0 0 1 .184.259l.1-.022a.731.731 0 0 1 .128-.048 1.265 1.265 0 0 1 .2-.267 1.426 1.426 0 0 1 .145.111 1.217 1.217 0 0 1 .032.288 1.249 1.249 0 0 1 .088.131 1.738 1.738 0 0 1 .353-.116 2.329 2.329 0 0 1 -.056.311 1.879 1.879 0 0 1 .279.042l.02.241.193.148.1.208.073.228-.1.3.047.24.073.228.325.158-.062.269-.174.292.085.226.151.217-.1.26.271.208a.478.478 0 0 0 -.064.084l-.044.058s-.127.1.949 0a1.937 1.937 0 0 0 .633.009z" fill="#fff"/><path d="m72.22 35.675c-.033.233.019.1.031.093l.15-.019.2.079a2.491 2.491 0 0 1 .116.277c.083-.017.163-.031.247-.042a1.758 1.758 0 0 1 .071.258 2.2 2.2 0 0 1 .243-.023 1.146 1.146 0 0 1 -.055.3l.137.046.078.06c.015.021.029.042.042.064a.258.258 0 0 1 -.049.065.7.7 0 0 1 .263.126.8.8 0 0 1 -.333-.035.481.481 0 0 1 .131.187.588.588 0 0 1 -.043.154c-.066.009-.126.017-.192.02a1.3 1.3 0 0 1 -.155.1l-.221-.02a2 2 0 0 1 -.153.2 1 1 0 0 1 -.186.159l-.266-.123-.212.193-.268-.12-.218.285-.265-.2-.232.177-.268-.275-.228.362-.252-.085-.244-.257-.252.216-.246-.064-.24-.184-.29.315-.243-.068-.221-.168-.266.081a1.672 1.672 0 0 1 -.18-.214l-.19-.075a2.866 2.866 0 0 1 -.287.172 2.03 2.03 0 0 1 -.025-.389 1.729 1.729 0 0 1 -.19-.011.671.671 0 0 1 -.09-.128 1.276 1.276 0 0 1 -.267.053.623.623 0 0 1 .171-.223.644.644 0 0 1 -.251-.01.7.7 0 0 1 .078-.1.922.922 0 0 1 .181-.082.433.433 0 0 1 -.111-.171 1.477 1.477 0 0 1 .156-.106l.035-.151c0-.042-.023-.1.007-.156a1.191 1.191 0 0 1 .106-.139l.161-.113c.07-.006.156 0 .232 0a1.216 1.216 0 0 1 .2-.1l.221-.057.258.084a2.2 2.2 0 0 1 .223-.081l.2-.264.248-.015.25-.018.261.13.25-.019.253-.07.252.091.26-.262.257.075.261-.074.243.117.259-.05.257-.034c.057 0 .108.083.182-.027.013-.017.059.007.112-.253l.024-.122.029-.213c.016-.133.008-.172 0-.18s-.148-.011-.222-.019l-.276-.061h-.28l-.267-.129-.268-.162-.279.055-.277-.115-.278.083-.279.028-.282-.039-.268.182-.291-.1-.294-.058-.266.151a2.956 2.956 0 0 0 -.318-.1l-.284.089-.279.141a2.239 2.239 0 0 0 -.362-.067l-.223.291-.22.288a2.618 2.618 0 0 0 -.434.033 1.74 1.74 0 0 0 -.317.3 1.224 1.224 0 0 0 .03.459 1.74 1.74 0 0 0 -.4.2 2.331 2.331 0 0 0 .1.427 1.909 1.909 0 0 0 -.071.381 1.966 1.966 0 0 0 .006.413 1.768 1.768 0 0 0 -.017.465 2.235 2.235 0 0 0 .2.394 2.011 2.011 0 0 0 .453.11 2.245 2.245 0 0 0 .275.21 3.231 3.231 0 0 0 .107.485 2.978 2.978 0 0 0 .428-.1l.29.141a3.91 3.91 0 0 0 .241.346 2.613 2.613 0 0 0 .355-.146l.305-.1.233.4.334-.282.259.236.3-.158.271.277.3-.307.271.207.28-.183.3.23.271-.2.282-.059.339.259.284-.056.275-.106.232-.36.3-.034a3.4 3.4 0 0 0 .369.137c.13.04.217-.038.325-.068a4.213 4.213 0 0 0 .155-.419 2.374 2.374 0 0 0 .421.032 3.043 3.043 0 0 0 .114-.374 2.152 2.152 0 0 0 .341-.207 2.1 2.1 0 0 0 .139-.4 1.75 1.75 0 0 0 .137-.383 2.142 2.142 0 0 0 .078-.4 1.957 1.957 0 0 0 .143-.455 2.175 2.175 0 0 0 -.107-.442 2.54 2.54 0 0 0 -.217-.37 1.962 1.962 0 0 0 -.437-.13 3.391 3.391 0 0 0 -.177-.324 3.655 3.655 0 0 0 -.15-.388 1.567 1.567 0 0 0 -.315-.15 1.17 1.17 0 0 0 -.347-.051c-.092-.07-.169-.166-.258-.245a3.1 3.1 0 0 0 -.386.124.777.777 0 0 0 -.079-.093l-.074-.057c-.017-.013-.1-.17-.3.844-.047.263-.084.444-.091.53z" fill="#fff"/><path d="m70.986 29.192c-.011.239.028.1.034.1a.723.723 0 0 0 .134-.027 1.523 1.523 0 0 1 .2.053c.064.022.091.177.129.26a1.953 1.953 0 0 1 .228-.073 1.327 1.327 0 0 1 .081.245 2.11 2.11 0 0 1 .224-.06.892.892 0 0 1 -.06.288h.12l.041.031a.34.34 0 0 1 .03.023.147.147 0 0 1 -.063.027.555.555 0 0 1 .273.107 1.17 1.17 0 0 1 -.337-.059.549.549 0 0 1 .119.21.97.97 0 0 1 -.053.174l-.208.055a1.735 1.735 0 0 1 -.154.13l-.217.011-.1.233-.148.193-.283-.066-.145.232-.28-.069-.124.33-.3-.131-.171.224-.3-.231-.125.409c-.084-.01-.17-.017-.251-.03l-.28-.212-.194.254-.233-.011-.243-.154c-.06.121-.12.242-.19.354l-.225-.021a.763.763 0 0 0 -.209-.128 2.122 2.122 0 0 1 -.21.113.783.783 0 0 1 -.163-.194l-.148-.059a1.661 1.661 0 0 1 -.231.2c.009-.117 0-.256 0-.39-.071-.006-.151-.013-.219-.023l-.123-.142a1.944 1.944 0 0 1 -.283.068.965.965 0 0 1 .117-.265.725.725 0 0 1 -.242.057.24.24 0 0 1 .06-.078.329.329 0 0 1 .173-.023.244.244 0 0 1 -.14-.07.294.294 0 0 0 .128-.02.538.538 0 0 1 .051-.144 1.167 1.167 0 0 1 .058-.2l.127-.166a1.455 1.455 0 0 1 .164-.144l.235-.04a.83.83 0 0 1 .18-.137l.206-.094.265.026.2-.13.134-.3.228-.073.228-.073.271.068.224-.076.212-.122.25.03.175-.312.249.04.221-.121.247.092.218-.075.217-.065c.055-.017.1.078.149-.063.016-.02.052 0 .081-.309l.008-.144.01-.251c0-.152-.009-.2-.022-.2a.477.477 0 0 0 -.228.018 1.606 1.606 0 0 0 -.286 0c-.093.022-.183.049-.27.079l-.282-.06-.295-.091-.248.128-.284-.051-.242.142-.254.085-.27.03-.189.248-.294-.037-.285.007-.211.2-.313-.041-.237.141-.22.176c-.111-.01-.225-.022-.339-.028a1.731 1.731 0 0 0 -.162.289c-.051.1-.109.185-.157.283a3.262 3.262 0 0 0 -.383 0 3.217 3.217 0 0 0 -.263.2 2.965 2.965 0 0 0 -.005.442 1.219 1.219 0 0 0 -.442.2 1.653 1.653 0 0 0 .07.484 1.491 1.491 0 0 0 -.038.416 1.292 1.292 0 0 0 .068.423 3.208 3.208 0 0 0 .048.463c.069.11.143.217.222.32a3.1 3.1 0 0 0 .43.028l.261.157c.012.16.035.306.062.467l.423-.1a2.336 2.336 0 0 0 .319.153 3.888 3.888 0 0 0 .274.344c.123-.056.237-.114.348-.175a2.048 2.048 0 0 0 .306-.147c.092.119.194.245.3.362l.259-.339a1.2 1.2 0 0 0 .3.186l.254-.22.315.214a2.568 2.568 0 0 0 .215-.372l.309.129.218-.242.331.178.2-.261.243-.115.357.193.253-.112.235-.159.125-.388c.088-.024.175-.054.263-.084s.239.059.363.079l.284-.11c.029-.144.054-.3.071-.445.135.006.255.012.391.009.036-.118.069-.238.1-.36a2.524 2.524 0 0 0 .305-.181 2.662 2.662 0 0 0 .119-.36 1.815 1.815 0 0 0 .147-.36 1.563 1.563 0 0 0 .09-.405 1.669 1.669 0 0 0 .161-.457 1.9 1.9 0 0 0 -.119-.456 2.108 2.108 0 0 0 -.243-.384 1.834 1.834 0 0 0 -.458-.1 2.71 2.71 0 0 0 -.2-.311 3.655 3.655 0 0 0 -.184-.371 2.918 2.918 0 0 0 -.325-.115 3.353 3.353 0 0 0 -.346-.012 3.26 3.26 0 0 0 -.274-.21l-.181.082-.177.09a.418.418 0 0 0 -.095-.072l-.068-.052c-.017-.013-.112-.135-.2.866z" fill="#fff"/><path d="m70.309 12.213a5.692 5.692 0 0 1 -.641-.77c-.151-.056-.3-.108-.459-.152a4.573 4.573 0 0 0 -.5-.052 4.869 4.869 0 0 0 -.442-.215 3.931 3.931 0 0 0 -.5.184l-.106-.059-.116-.051c-.024-.018-.18-.138-.153.8l.013-.017-.023-.173c-.017-.1-.039-.132-.057-.135a1.713 1.713 0 0 0 -.312.035 3.589 3.589 0 0 0 -.414.022 3.53 3.53 0 0 0 -.409.084c-.143 0-.291-.013-.438 0a4.544 4.544 0 0 0 -.467.013 2.449 2.449 0 0 0 -.4.23 2.742 2.742 0 0 0 -.466.181 2.458 2.458 0 0 0 -.324.36 2.832 2.832 0 0 0 -.3.356l-.28.366c-.032.153-.063.307-.094.466l-.259.339-.232.36-.05.423-.259.339-.1.393a4.151 4.151 0 0 0 -.054.443l-.253.429a3.5 3.5 0 0 0 .125.483 3.575 3.575 0 0 0 .136.453l-.132.49a1.823 1.823 0 0 0 .092.468c.143.109.266.236.4.34a4.2 4.2 0 0 0 -.016.526 2.938 2.938 0 0 0 .412.277l.258.364a2.232 2.232 0 0 0 .272.348l.214.421c.106.108.228.2.339.3a4.392 4.392 0 0 0 .5.05l.391.191a3.572 3.572 0 0 0 .255.5l.508-.068a3.2 3.2 0 0 0 .414.161l.374.361.485-.128a3.039 3.039 0 0 0 .452-.1l.444.34a3.084 3.084 0 0 0 .439-.315l.485.14c.14-.092.275-.192.406-.285a2.7 2.7 0 0 0 .528.081 5.426 5.426 0 0 0 .3-.466 2.018 2.018 0 0 0 .522-.106 2.808 2.808 0 0 0 .266-.468 3.266 3.266 0 0 0 .5-.246 3.067 3.067 0 0 0 .1-.513 4.421 4.421 0 0 0 .147-.424 5.267 5.267 0 0 0 .416-.354c.034-.15.069-.3.1-.458a2.08 2.08 0 0 0 .022-.45q-.108-.238-.232-.462l.07-.414.247-.408.053-.427c-.1-.141-.214-.282-.324-.419.069-.146.14-.3.2-.45-.076-.139-.165-.276-.233-.4.011-.15.016-.3.016-.456a4.575 4.575 0 0 0 -.222-.411 2.941 2.941 0 0 1 -.166-.423c-.061-.138-.117-.282-.187-.422a4.27 4.27 0 0 0 -.095-.5 4.184 4.184 0 0 0 -.279-.407 4.219 4.219 0 0 0 -.345-.35 4.267 4.267 0 0 0 -.562-.163z" fill="#fff"/><path d="m58.885 72.76c.2.232.5.052.6.027l1.684-.227 2.6-.233 2.616-.035 2.576-.425 2.611-.1 2.567-.475 2.622-.057 2.572-.434 2.576-.382 2.575-.41 1.293-.166 2.061-.293.115-.024-.062-1.246c-.009-.178-.02-.445-.022-.554l-.033-.315-.135-1.269.373-2.6-.2-2.6-.057-2.6.127-2.589.013-2.6.107-2.6q-.079-1.3-.212-2.617t-.252-2.614q.008-1.317-.038-2.64-.222-1.3-.494-2.586-.1-1.306-.235-2.613l-.748-2.534-.246-2.6-.639-2.52-.15-2.613-.825-2.489-.339-2.576-.153-2.609-.649-2.522-.342-2.572-.174-2.582-.722-2.519-.318-2.575-.24-2.832-.198-1.14a.613.613 0 0 0 -.027-.134l-.146.023-.289.041-.6.08c-.893.122-1.175.175-1.628.253l-2.6.119-2.586.289-2.545.61-2.649-.055-2.569.436-2.583.3-2.542.612-2.616.083-2.536.633-2.584.3-1.29.092-1.173.129-.65.078c-.162-.028-.079.138-.094.228l.011.315.148 1.289.14.688.218 1.291.112 2.6.28 2.583.346 2.581.289 2.585.266 2.588.157 2.6.29 2.585.253 2.59.119 2.6.319 2.581.539 2.561.279 2.583.292 2.582.15 2.613.32 2.581.394 2.574.223 2.594.629 2.506.248 2.591.459 2.56c.067.867.161 1.734.265 2.588l.481 2.56.475 2.56a9.148 9.148 0 0 0 .35 1.8c.036.093.113.624.368.593a.287.287 0 0 0 .117-.055 1.37 1.37 0 0 0 .2-.148.427.427 0 0 0 .129-.364c-.073-.657-.2-1.31-.292-1.964l-.328-2.577-.382-2.57-.211-2.595-.171-2.586-.432-2.56-.214-2.592-.436-2.563-.351-2.565-.268-2.585-.515-2.543-.16-2.6-.189-2.59-.415-2.568-.1-2.6-.31-2.58-.333-2.576-.055-2.6-.439-2.565-.406-2.573.021-2.611-.2-2.591-.532-2.556.09-2.618-.226-1.284-.107-.619c-.026-.064-.051-.136-.081-.224s.067-.088.139-.1l.3-.04 1.284-.183 2.57-.345 2.6-.19 2.577-.328 2.523-.641 2.567-.378 2.641.059 2.534-.629 2.579-.289 2.614-.025 2.556-.528.632-.123.155-.027.046-.018.1-.035.117-.034c.039-.008.095-.04.1.008l.074.213a.651.651 0 0 0 -.023.17v.33l-.01.658-.052 1.281.684 2.532.15 2.613.582 2.546.117 2.614.753 2.527.222 2.6.607 2.528.183 2.611.652 2.519.518 2.545.158 2.6.469 2.54q.248 1.263.478 2.514.345 1.248.644 2.508.105 1.267.186 2.565-.038 1.293-.131 2.586.016 1.286 0 2.575l.348 2.587-.269 2.626.171 2.585-.131 2.587.087 2.618-.016 2.6-.034 1.919-.224-.016h-.046l-.16.012-.325.026-1.288.089-2.611.372-2.565.368-2.532.621-2.587.207-2.6.071-2.57.339-2.565.391-2.591.128-2.56.481-.823-.006-.649-.008c-.155 0-1-.1-.872 1.02a1.085 1.085 0 0 0 .195.597z" fill="#fff"/><path d="m57.152 28.407c-.325.122-.1.083-.078.1l.159.122.051.27-.259.339.268.2-.214.336.3.2-.323.36.18.234.089.256.092.259-.035.285.487.178-.445.364.378.208.164.249-.107.3.057.269-.119.3.263.239.191.248-.238.312.266.242-.225.294.425.224-.3.31.267.248-.414.323.568.219-.1.291-.354.315.357.235-.044.283-.234.3.515.233-.023.283-.153.292.212.264-.228.3-.008.284.411.25-.479.316.155.268-.041.286.338.259-.357.313.339.259-.086.288-.228.3.257.262-.111.291.11.278.179.271.1.276.059.281-.1.3.071.28.013.284-.166.3.082.278.339.259.017.287.026.283-.178.309.04.284.125.273-.093.3.428.226-.087.3.166.261-.132.313.127.269.121.27c.027.063-.127.166.113.183.027.021.009.072.5-.024l.225-.048.4-.089c.238-.059.305-.083.306-.1s-.078-.129-.108-.2l-.049-.274-.129-.26.092-.3.151-.3-.153-.257.119-.3-.09-.22-.072-.27.035-.285-.273-.247.152-.3.1-.29-.189-.258.2-.3-.067-.271-.106-.269.234-.3-.26-.258-.229-.262.306-.3.023-.283-.425-.245.379-.312-.339-.26.017-.282.035-.285.221-.288.031-.287-.4-.25-.062-.278.5-.32-.4-.245.019-.286.367-.31-.339-.26-.254-.264.5-.328-.468-.245.293-.313-.29-.26.368-.32-.488-.239.259-.339-.293-.256.358-.328-.315-.241-.08-.282.421-.339-.053-.282-.122-.276-.489-.224.019-.291.314-.332.036-.3-.536-.2.323-.345-.355-.239.117-.313-.208-.256-.068-.283-.029-.291.235-.357-.009-.3-.077-.285-.461-.192.1-.327.275-.359a1.68 1.68 0 0 0 -.145-.267l-.262-.233.075-.33-.412-.164.086-.112.067-.088c.016-.02.2-.181-1.292.285-.425.126-.666.21-.808.263z" fill="#fff"/><path d="m108.462 5.537-.307-.014-3.888-.654-2.792-.487-2.758-.777-2.817-.405-2.889.314-2.824-.221-2.742-1.1-2.881.429-2.82-.266-2.79-.792c-.955.118-1.909.221-2.86.353l-1.378.117c-.168.022-.6.038-.963.058l-1.073.055-.027.1a3.936 3.936 0 0 0 -.44 1.221c0 .271-.021.6-.036.9l-.006.113v.058l-.114-.04-.236-.078-.96-.326-.494-.168a1.032 1.032 0 0 0 -.111-.037l-.013.017-.012.05-.181.834.013.348a2.553 2.553 0 0 0 .02.29l.053.352.107.71.208 1.427-.751 2.748.116 2.84-.88 2.737.4 2.873-.722 2.756.107 2.844-.862 2.741.111 2.846-.216 2.811-.954 2.735-.253 2.81-.151 2.817.394 2.87-.357 2.832-.8 2.761-.367 2.8.489 2.872-.778 2.773.235 2.866-.412 2.81.1 2.857c-.027.968-.049 1.875-.028 2.923a12.776 12.776 0 0 0 .159 2.27l.218 1.07.031.136.015.071.071.006.28.02.581.02 2.241.35c.554.091.937.18 1.41.263.915.055 1.825.144 2.74.232s1.833.14 2.753.236c.938-.109 1.872-.179 2.831-.288l2.747.623 2.718.871 2.811.286 2.848.105 2.807.6 1.45-.126 1.45-.154c.3.077.591.168.895.234l.71.167c.167.042 1.042.416 1.138-1.88l.011.063a2.77 2.77 0 0 0 .112.408.447.447 0 0 0 .427.326 2.133 2.133 0 0 0 1.538-.542 2.772 2.772 0 0 0 .7-1.35l.392-1.377.324-1.364c.18-.937.38-1.858.521-2.787l.8-2.721.844-2.718c.14-.935.275-1.869.387-2.809l.761-2.743.309-2.82q.225-1.4.419-2.8l.563-2.793v-2.856q.346-1.379.663-2.77l.566-2.79.032-2.85q.348-1.389.664-2.785l.191-2.829.075-2.838q.343-1.4.641-2.8l-.221-2.822-.251-2.846c.232-.935.451-1.874.666-2.816l.144-2.835-.662-2.843c.243-.942.459-1.884.673-2.831l-.14-.709-.125-1.24-.135-1.178-.073-.551-.018-.131c-.041-.035-.044-.08-.112-.068z" fill="#e12729"/><path d="m93.068 13.5a1.824 1.824 0 0 0 -.409-.259 4.726 4.726 0 0 0 -.462-.155 4.9 4.9 0 0 0 -.39-.3 4 4 0 0 0 -.524.061l-.129-.1-.1-.077c-.024-.019-.142-.173-.34.733l.015-.021.02-.173c.007-.107-.007-.139-.023-.146a1.809 1.809 0 0 0 -.31-.044c-.133-.037-.269-.055-.406-.08a3.451 3.451 0 0 0 -.419-.014c-.142-.033-.276-.082-.425-.1a4.518 4.518 0 0 0 -.458-.1 2.441 2.441 0 0 0 -.446.126 2.8 2.8 0 0 0 -.483.055 2.5 2.5 0 0 0 -.4.27 2.814 2.814 0 0 0 -.368.256c-.129.084-.25.179-.364.258-.066.143-.136.283-.19.424l-.358.264-.313.3-.161.414-.341.277-.187.357c-.06.135-.114.273-.161.414l-.351.354a3.6 3.6 0 0 0 0 .5 3.547 3.547 0 0 0 .026.472l-.245.446a1.823 1.823 0 0 0 -.021.478q.148.226.3.425a4.325 4.325 0 0 0 -.135.5 2.937 2.937 0 0 0 .336.369l.161.414a2.242 2.242 0 0 0 .185.405l.111.466c.075.133.17.248.253.371a4.581 4.581 0 0 0 .476.171l.339.259a3.718 3.718 0 0 0 .124.541l.5.049a3.254 3.254 0 0 0 .338.259l.275.441.5-.009a3 3 0 0 0 .464.012c.111.143.225.29.354.437a3.16 3.16 0 0 0 .5-.2l.438.249c.16-.055.316-.118.466-.181a2.591 2.591 0 0 0 .493.2c.144-.125.279-.253.4-.379a2.006 2.006 0 0 0 .525.015 2.837 2.837 0 0 0 .372-.387 3.418 3.418 0 0 0 .547-.118 2.964 2.964 0 0 0 .22-.471 4.027 4.027 0 0 0 .259-.388c.164-.073.327-.153.488-.244.073-.138.143-.278.2-.416a4.047 4.047 0 0 0 .133-.435c-.033-.172-.071-.34-.115-.5l.178-.4.338-.338.165-.411c-.064-.162-.138-.326-.211-.483l.3-.393c-.042-.156-.093-.308-.143-.459.046-.144.087-.292.124-.443-.036-.15-.068-.3-.115-.447a3.138 3.138 0 0 1 -.059-.449c-.026-.149-.044-.3-.079-.452a4.181 4.181 0 0 0 .032-.513 4.62 4.62 0 0 0 -.18-.466c-.066-.116-.137-.23-.213-.34a4.12 4.12 0 0 0 -.484-.23 5.594 5.594 0 0 1 -.436-.9z" fill="#fff"/><path d="m67.865 70.432c.14.274.462.161.573.171l1.69.186 2.573.4 2.548.6 2.6.208 2.558.533 2.607.152 2.558.576 2.6.2 2.593.248 2.6.22 1.3.147 2.079.205h.116l.238-1.225c.032-.175.088-.438.1-.531l.043-.316.173-1.265.988-2.43.428-2.574.569-2.535.75-2.489.637-2.526.738-2.508q.227-1.294.425-2.592c.13-.873.281-1.73.383-2.608q.327-1.276.6-2.572.1-1.317.143-2.631.218-1.294.384-2.608l-.106-2.621.373-2.595-.014-2.6.483-2.569-.206-2.618.29-2.583.48-2.566-.021-2.605.287-2.58.441-2.564-.093-2.617.311-2.577.445-2.808.095-1.141a.611.611 0 0 0 .006-.135l-.148-.017-.293-.031-.578-.06c-.895-.094-1.186-.107-1.641-.144l-2.57-.515-2.57-.354-2.576.038-2.543-.672-2.6-.193-2.58-.329-2.621-.028-2.557-.549h-2.614l-2.581-.325-1.289-.21-1.169-.15-.647-.082c-.149-.065-.1.126-.148.193l-.063.307-.167 1.285-.061.657-.123 1.3-.516 2.549-.357 2.574-.283 2.588-.352 2.567-.36 2.577-.475 2.559-.348 2.565-.366 2.584-.509 2.555-.31 2.582-.09 2.618-.355 2.57-.353 2.567-.438 2.582-.311 2.583-.236 2.591-.41 2.572v2.629l-.365 2.584-.172 2.6c-.127.869-.245 1.725-.362 2.58l-.138 2.581-.153 2.6a9.161 9.161 0 0 0 -.093 1.833c.014.1-.051.643.214.669a.284.284 0 0 0 .125-.023 1.4 1.4 0 0 0 .23-.1.427.427 0 0 0 .213-.321c.089-.657.126-1.316.188-1.973l.3-2.584.246-2.59.419-2.57.444-2.567.2-2.589.416-2.566.194-2.592.277-2.581.36-2.577.117-2.6.475-2.559.435-2.563.215-2.591.528-2.551.321-2.575.3-2.582.572-2.538.187-2.6.221-2.592.646-2.53.43-2.562.1-2.61.712-2.517.088-1.3.039-.62c-.009-.065-.019-.143-.025-.234s.082-.071.156-.063l.3.033 1.29.132 2.579.287 2.566.438 2.579.3 2.612-.016 2.587.249 2.538.679h2.614l2.563.35 2.543.6 2.609.1.651.041.154.01.048-.006.108-.009h.121c.04 0 .105-.017.09.031l.017.223a.708.708 0 0 0 -.067.158l-.083.318-.168.635-.333 1.268.057 2.623-.486 2.566-.048 2.612-.514 2.567.118 2.62-.415 2.558v2.611l-.452 2.577.028 2.611-.113 2.6-.465 2.573-.147 2.573q-.063 1.29-.154 2.568.035 1.3.022 2.591-.191 1.272-.436 2.535-.346 1.242-.742 2.473c-.262.82-.405 1.667-.617 2.5l-.282 2.594-.911 2.462-.443 2.567-.759 2.488-.541 2.54-.638 2.521-.493 1.853-.017-.013-.216-.069-.038-.028-.161-.028-.321-.051-1.282-.213-2.578-.275-2.579-.259-2.606-.006-2.564-.42-2.544-.544-2.577-.29-2.586-.241-2.555-.461-2.583-.134-.8-.2-.627-.163c-.152-.041-.939-.332-1.09.778a1.073 1.073 0 0 0 .02.596z" fill="#fff"/><path d="m76.838 26.964c-.345.043-.12.059-.107.069l.111.171-.015.273-.327.287.212.264-.286.276.245.268-.4.273.118.267.024.271.03.27-.1.266.428.29-.517.249.315.289.1.28-.192.25-.009.272-.2.255.2.293.123.288-.3.245.2.3-.278.244.359.324-.381.245.2.3-.48.213.5.35-.186.244-.419.217.292.321-.111.264-.3.235.45.345-.092.268-.22.245.142.307-.294.237-.074.272.4.361-.54.194.086.3-.108.267.287.327-.422.214.285.331-.154.264-.285.238.186.32-.189.247.039.293.11.3.03.291-.011.288-.156.31v.288l-.054.281-.234.257.014.29.287.327-.053.281-.045.283-.246.258-.029.284.058.3-.165.271.366.323-.159.27.1.3-.207.271.06.293.051.292c.012.068-.166.125.064.2.03.024-.012.072.471.087l.229.009.4.007c.247 0 .316 0 .32-.018s-.043-.14-.059-.217l.018-.277-.065-.28.16-.265.207-.271-.087-.287.195-.254-.1-.289-.006-.279.1-.266-.2-.3.2-.265.166-.259-.118-.295.269-.246v-.28l-.038-.287.3-.237-.191-.313-.163-.307.392-.238.092-.268-.353-.339.436-.2-.282-.334.083-.27.1-.266.294-.237.1-.269-.335-.342.008-.284.565-.191-.354-.345.086-.273.425-.212-.276-.341-.183-.317.565-.2-.4-.352.355-.233-.219-.324.425-.212-.415-.35.33-.241-.222-.321.418-.217-.234-.319-.018-.291.49-.226.017-.289-.052-.3-.427-.327.091-.28.388-.24.108-.282-.47-.333.384-.243-.292-.321.2-.264-.137-.3v-.29l.044-.288.317-.295.062-.291-.006-.3-.4-.3.181-.292.33-.285a1.764 1.764 0 0 0 -.076-.294l-.2-.287.155-.3-.363-.273.086-.112.067-.088c.016-.02.236-.126-1.311-.02-.296.042-.555.064-.704.084z" fill="#fff"/><path d="m130.264 16.721-.3-.091-3.564-1.656-2.567-1.2-2.458-1.474-2.6-1.139-2.875-.455-2.661-.96-2.348-1.8-2.93-.313-2.64-.988-2.488-1.495c-.962-.146-1.9-.286-2.854-.406l-1.371-.243c-.171-.023-.591-.119-.937-.18l-1.049-.221-.06.078a3.954 3.954 0 0 0 -.734 1.05c-.071.262-.177.568-.274.864l-.035.109-.033.044-.1-.076-.2-.15-.84-.567-.431-.293a.948.948 0 0 0 -.095-.072l-.016.02-.031.041-.4.768-.076.339a2.763 2.763 0 0 0 -.057.285l-.041.355-.084.715-.178 1.432-1.437 2.458-.633 2.772-1.567 2.408-.369 2.877-1.418 2.471-.645 2.772-1.55 2.42-.638 2.772-.953 2.65-1.609 2.458-.982 2.645-.885 2.681-.372 2.874-1.074 2.611-1.5 2.455-1.083 2.604-.277 2.9-1.479 2.473-.518 2.827-1.148 2.609-.655 2.76c-.279.926-.537 1.8-.792 2.811a12.851 12.851 0 0 0 -.434 2.225l-.068 1.092v.141.074l.068.024.264.09.524.186 2.071.923c.509.234.859.416 1.294.625.857.285 1.726.617 2.585.941s1.732.615 2.595.948c.937.137 1.87.308 2.807.466l2.48 1.315 2.395 1.553 2.643 1.012 2.719.85 2.551 1.313 1.422.249 1.434.232c.263.154.526.317.8.457l.643.346c.151.084.891.682 1.59-1.517l-.008.074a2.6 2.6 0 0 0 0 .423.446.446 0 0 0 .316.436 2.134 2.134 0 0 0 1.625-.122 2.775 2.775 0 0 0 1.028-1.12l.738-1.224.681-1.241c.424-.842.844-1.686 1.245-2.54l1.489-2.417 1.528-2.4q.572-1.3 1.108-2.607l1.452-2.445 1.036-2.64q.584-1.29 1.14-2.593l1.266-2.54.754-2.754q.7-1.241 1.372-2.5l1.275-2.544.786-2.734q.7-1.249 1.38-2.506l.928-2.68.83-2.707q.7-1.258 1.355-2.536l.508-2.834.519-2.827c.472-.842.928-1.691 1.381-2.543l.883-2.7.091-2.928c.481-.846.936-1.7 1.391-2.556l.047-.722.188-1.242.165-1.164.072-.551.016-.133c.004-.004.013-.051-.057-.057z" fill="#e12729"/><path d="m101.834 53.706c.24.087.108-.008.113-.021a.692.692 0 0 0 .023-.192l.108-.261.309-.193-.058-.324.269-.219-.089-.326.331-.214-.02-.3.038-.288.022-.289.1-.284-.28-.338c.122-.089.238-.183.344-.274-.072-.109-.141-.215-.219-.317s-.061-.208-.1-.313a2.992 2.992 0 0 0 .055-.339 3.245 3.245 0 0 0 -.084-.333 2.734 2.734 0 0 0 -.01-.373 2.944 2.944 0 0 0 -.3-.274 2.837 2.837 0 0 0 -.279-.246 2.525 2.525 0 0 0 -.1-.392 2.877 2.877 0 0 0 -.374-.136 2.278 2.278 0 0 0 -.229-.346 2.242 2.242 0 0 0 -.461.076 1.949 1.949 0 0 0 -.34-.308 1.862 1.862 0 0 0 -.419.141 1.965 1.965 0 0 0 -.459-.222 1.955 1.955 0 0 0 -.266.474 2.3 2.3 0 0 0 -.371.113 2.963 2.963 0 0 0 -.46.046 2.3 2.3 0 0 0 -.084.419c-.084.075-.162.156-.239.236a1.724 1.724 0 0 1 -.326.18 3.765 3.765 0 0 0 .139.429l-.159.25-.23.216.014.312a.567.567 0 0 1 -.125.086.372.372 0 0 1 -.087-.012l-.018.023a.839.839 0 0 1 .167.3.992.992 0 0 1 -.241-.346.249.249 0 0 1 .015.108.226.226 0 0 1 -.025-.067.454.454 0 0 1 -.079.23 1.067 1.067 0 0 1 .05-.298c-.049.065-.215.056-.32.089l-.177-.2-.123-.288h-.3l-.158-.229-.244-.095-.275-.055-.242-.1-.222-.131-.152-.23-.1-.075-.041-.031a.277.277 0 0 1 -.058-.044.337.337 0 0 1 .136-.1.273.273 0 0 1 -.07 0 .424.424 0 0 1 -.248-.034l.068-.088a1.278 1.278 0 0 0 .1-.206l.241-.181.1-.245.05-.268.192-.2-.138-.353.188-.2.03-.278.218-.193.056-.263a1.479 1.479 0 0 0 .047-.271c.006-.065.116-.083.009-.2-.02-.016.022-.064-.24-.184l-.123-.051-.218-.087c-.135-.049-.182-.058-.189-.048s-.048.125-.07.189a1.271 1.271 0 0 0 -.13.234l-.062.264-.2.2-.237.184-.04.27-.212.192-.037.273-.094.25-.164.214.042.311a1.425 1.425 0 0 0 -.253.225l-.309.4c-.028.15-.043.3-.059.422l-.184.241-.088.115.048.091.432.264.42.23.116.207c.026.057.036.108.058.162l.329.005.314.025.081.358.217.166.392-.1.07.386.358-.053.217.166.217.166a1.571 1.571 0 0 0 .168.306 2.578 2.578 0 0 0 .394.264 1.409 1.409 0 0 0 .454-.094 1.157 1.157 0 0 0 .371.027 1.356 1.356 0 0 0 .514.248 1.358 1.358 0 0 0 .217-.5 1.5 1.5 0 0 0 .259-.339 1.7 1.7 0 0 0 .407-.279l-.007-.285a.876.876 0 0 0 -.056-.166l-.059-.288a4.154 4.154 0 0 1 .419-.077l-.176-.338a2.467 2.467 0 0 1 .291-.094c-.018-.095-.029-.179-.042-.274a1.833 1.833 0 0 1 .323.005 2.321 2.321 0 0 1 -.11-.256.853.853 0 0 1 .246.043 1.119 1.119 0 0 1 .031-.223.757.757 0 0 1 .2.2.58.58 0 0 1 .086-.2.55.55 0 0 1 .128-.027 1.021 1.021 0 0 1 .032.316.534.534 0 0 1 .1.03.658.658 0 0 1 .133.021 1.3 1.3 0 0 1 .314-.114 1.441 1.441 0 0 1 .089.164 1.294 1.294 0 0 1 -.114.268 1.176 1.176 0 0 1 .015.156 1.811 1.811 0 0 1 .365.07 2.337 2.337 0 0 1 -.191.251 2.058 2.058 0 0 1 .223.171l-.1.22c.037.072.067.144.1.222l-.011.232-.045.235-.228.213-.075.232-.045.234.207.3-.169.22-.294.167-.036.236.029.264-.214.175.136.314a.422.422 0 0 0 -.1.043l-.062.039s-.161.027.832.464c.25.086.427.167.516.192z" fill="#fff"/><path d="m103.769 42.792c-.143.187-.028.092-.018.094l.141.054.138.171a2.459 2.459 0 0 1 -.033.3 2.081 2.081 0 0 1 .236.085 1.691 1.691 0 0 1 -.066.261 2.045 2.045 0 0 1 .224.1 1.2 1.2 0 0 1 -.184.241l.1.106c.014.037.009.065.02.1a.167.167 0 0 1 .007.076c0 .018-.059.019-.076.028a.713.713 0 0 1 .166.24.816.816 0 0 1 -.268-.205.491.491 0 0 1 .025.228.649.649 0 0 1 -.1.125 1.017 1.017 0 0 0 -.178-.077 1.364 1.364 0 0 1 -.181.012l-.176-.135a2.071 2.071 0 0 1 -.226.113c-.077.016-.156.036-.24.047l-.168-.236-.281.064-.178-.238-.32.152-.149-.3-.29.041-.1-.37-.378.205-.178-.2-.143-.325-.326.068-.182-.177-.1-.284-.388.128-.181-.177-.122-.249-.272-.058a1.671 1.671 0 0 1 -.055-.273l-.127-.156a2.912 2.912 0 0 1 -.337.011 2.17 2.17 0 0 1 .169-.354 1.782 1.782 0 0 1 -.149-.114.717.717 0 0 1 -.017-.153 1.307 1.307 0 0 1 -.26-.081.617.617 0 0 1 .255-.116.651.651 0 0 1 -.215-.127.617.617 0 0 1 .11-.066.93.93 0 0 1 .2.016.432.432 0 0 1 -.012-.2 1.353 1.353 0 0 1 .19-.016l.093-.122c.026-.034.03-.1.1-.126s.1-.055.158-.072l.2-.021a2.239 2.239 0 0 0 .2.111 1.157 1.157 0 0 1 .22.007l.221.062.185.2a2.311 2.311 0 0 1 .233.039l.306-.126.225.107.226.1.166.24.225.107.254.06.177.205.354-.105.179.2.264.062.157.222.249.083.241.1c.047.036.041.128.173.062 0 0 .047.036.221-.164l.208-.271c.08-.105.1-.135.082-.157a.7.7 0 0 0 -.176-.135l-.223-.171-.247-.134-.169-.243-.155-.274-.273-.086-.187-.233-.282-.066-.259-.112-.227-.174-.322.028-.2-.232-.237-.181h-.307a2.745 2.745 0 0 0 -.228-.243l-.294-.059-.312-.013a2.244 2.244 0 0 0 -.291-.223c-.119.043-.225.076-.345.128l-.335.142a2.6 2.6 0 0 0 -.4-.181 1.708 1.708 0 0 0 -.416.1 1.232 1.232 0 0 0 -.194.415 1.763 1.763 0 0 0 -.447-.019 2.291 2.291 0 0 0 -.131.437 2.8 2.8 0 0 0 -.444.686 1.8 1.8 0 0 0 -.242.4 2.241 2.241 0 0 0 -.02.441 1.977 1.977 0 0 0 .343.316 2.193 2.193 0 0 0 .154.311 3.458 3.458 0 0 0 -.14.479 3.125 3.125 0 0 0 .435.134l.184.264c.009.136.019.278.041.418a2.468 2.468 0 0 0 .375.05l.315.059.008.452.411-.073.114.335.339.007.1.373.4-.121.153.3.335-.023.142.356.332-.042.273.086.155.381.276.088.292.04.363-.194.277.115a3.543 3.543 0 0 0 .256.3c.092.1.21.069.321.1a4.029 4.029 0 0 0 .356-.3 2.424 2.424 0 0 0 .357.236 3 3 0 0 0 .335-.249 2.14 2.14 0 0 0 .4-.016 2.065 2.065 0 0 0 .32-.293 1.714 1.714 0 0 0 .308-.269 2.028 2.028 0 0 0 .259-.339 1.914 1.914 0 0 0 .347-.326 2.2 2.2 0 0 0 .123-.442 2.447 2.447 0 0 0 -.011-.428 1.942 1.942 0 0 0 -.318-.329 3.245 3.245 0 0 0 0-.369 3.816 3.816 0 0 0 .058-.412 3.422 3.422 0 0 0 -.206-.286 1.331 1.331 0 0 0 -.278-.213c-.033-.111-.067-.229-.106-.339a2.964 2.964 0 0 0 -.4-.078.7.7 0 0 0 -.028-.118l-.027-.091s0-.194-.654.574a2.844 2.844 0 0 0 -.35.396z" fill="#fff"/><path d="m105.842 36.53c-.125.2-.027.1-.014.1a.7.7 0 0 0 .134.043.663.663 0 0 1 .149.141c0 .1-.007.2-.013.291.075.015.159.025.235.045a1.347 1.347 0 0 1 -.049.253 1.943 1.943 0 0 1 .224.059.883.883 0 0 1 -.179.233l.1.073a.226.226 0 0 1 .016.05c0 .009 0 0 .027.02a.143.143 0 0 1 -.065-.006.545.545 0 0 1 .188.224 1.16 1.16 0 0 1 -.271-.207.554.554 0 0 1 0 .243.968.968 0 0 1 -.129.127l-.209-.058a1.618 1.618 0 0 1 -.2.039l-.2-.1-.2.155-.225.1-.215-.2-.241.133-.205-.188-.268.23-.2-.257-.262.111-.164-.34-.313.3-.2-.153-.146-.315-.284.147-.2-.125-.137-.256c-.112.076-.224.151-.334.218l-.179-.138c-.046-.073-.083-.144-.12-.215-.08 0-.161 0-.241 0-.018-.089-.037-.169-.051-.249l-.1-.121a1.748 1.748 0 0 1 -.301.063 3.519 3.519 0 0 0 .195-.34l-.173-.132-.039-.18a2.01 2.01 0 0 1 -.278-.079.95.95 0 0 1 .229-.174.725.725 0 0 1 -.237-.068.238.238 0 0 1 .092-.037.334.334 0 0 1 .164.066.24.24 0 0 1 -.09-.128.319.319 0 0 0 .125.048.5.5 0 0 1 .117-.1 1.111 1.111 0 0 1 .151-.148c.057-.032.127-.054.193-.084a1.01 1.01 0 0 1 .213-.046l.226.076c.071-.015.15-.02.224-.033a.8.8 0 0 1 .228.019l.21.16.232-.015.263-.2.232.049.234.045.2.189.234.044.246-.005.2.153.3-.186.2.155h.25l.17.2c.077.011.152.025.23.042l.223.047c.056.011.038.126.163.018.016-.021.041.031.219-.231l.086-.111.133-.216c.093-.122.088-.179.081-.19a.474.474 0 0 0 -.208-.094 1.593 1.593 0 0 0 -.249-.138c-.095-.024-.182-.042-.273-.058l-.227-.173-.208-.219-.282-.011-.23-.177-.28.007-.261-.044-.252-.107-.293.109-.233-.179-.253-.134-.279.071-.282-.215-.279.007a2.794 2.794 0 0 0 -.28.043 1.527 1.527 0 0 0 -.283-.184c-.1.058-.187.11-.281.177s-.184.107-.276.171a3.326 3.326 0 0 0 -.335-.187 3.019 3.019 0 0 0 -.328.05 2.807 2.807 0 0 0 -.215.372 1.211 1.211 0 0 0 -.5-.049 1.638 1.638 0 0 0 -.173.458 1.493 1.493 0 0 0 -.243.352 1.3 1.3 0 0 0 -.157.417 3.234 3.234 0 0 0 -.165.411c.007.131.02.261.04.391a3.4 3.4 0 0 0 .36.232l.153.263c-.065.148-.12.283-.173.437l.435.133a2.25 2.25 0 0 0 .2.29c.016.141.041.284.07.435.136.012.261.017.389.018a2.014 2.014 0 0 0 .338.022c.02.15.05.307.082.461l.4-.153c.054.1.113.21.172.309l.326-.068.173.342c.122-.068.24-.138.358-.215l.208.261c.106-.032.208-.067.309-.107l.2.316.3-.122.271.019.222.341.277.024.283-.025.3-.277c.087.019.178.04.271.052s.181.171.277.249l.3.042.275-.359a1.952 1.952 0 0 0 .339.2c.075-.1.178-.175.26-.268a2.573 2.573 0 0 0 .351-.011 2.532 2.532 0 0 0 .279-.259 1.893 1.893 0 0 0 .305-.245 1.512 1.512 0 0 0 .283-.32 1.674 1.674 0 0 0 .363-.319 1.9 1.9 0 0 0 .113-.451 2.064 2.064 0 0 0 -.02-.451 1.867 1.867 0 0 0 -.349-.309 2.831 2.831 0 0 0 -.024-.368 3.588 3.588 0 0 0 .021-.414 3.1 3.1 0 0 0 -.229-.256 3.153 3.153 0 0 0 -.3-.177 3.321 3.321 0 0 0 -.136-.319l-.2-.017-.2-.007a.434.434 0 0 0 -.037-.114l-.043-.076s-.035-.172-.594.663z" fill="#fff"/><path d="m112.3 19.349a4.056 4.056 0 0 0 -.525-.079l-.091-.134-.078-.1c-.023-.018-.092-.21-.523.62l.018-.023.064-.161c.035-.1.031-.138.014-.145a1.771 1.771 0 0 0 -.287-.123 2.42 2.42 0 0 0 -.388-.2 3.286 3.286 0 0 0 -.414-.112c-.124-.069-.245-.15-.377-.209a4.3 4.3 0 0 0 -.416-.215 2.449 2.449 0 0 0 -.461.006 2.778 2.778 0 0 0 -.479-.076 2.573 2.573 0 0 0 -.458.155 2.842 2.842 0 0 0 -.437.165c-.149.047-.287.108-.432.164l-.28.366-.411.158-.381.2-.259.339-.4.175-.274.295a4.047 4.047 0 0 0 -.259.339l-.429.252c-.089.311-.165.626-.228.943l-.353.364a1.775 1.775 0 0 0 -.134.434c.056.172.118.338.168.483a4.115 4.115 0 0 0 -.263.449 2.95 2.95 0 0 0 .206.432l.047.445a2.29 2.29 0 0 0 .071.441l-.018.48c.038.147.1.285.151.427a4.55 4.55 0 0 0 .4.306l.258.364a3.8 3.8 0 0 0 -.02.554l.478.189a3.228 3.228 0 0 0 .28.337l.155.5.485.124a3.01 3.01 0 0 0 .437.131c.067.165.141.337.224.515a3.017 3.017 0 0 0 .536-.063l.358.355c.169-.011.337-.033.5-.051a2.711 2.711 0 0 0 .423.324c.172-.084.336-.173.489-.26a2.011 2.011 0 0 0 .508.158 2.906 2.906 0 0 0 .462-.281 3.356 3.356 0 0 0 .558.029 2.973 2.973 0 0 0 .336-.4 4.093 4.093 0 0 0 .352-.3 3.674 3.674 0 0 0 .544-.121c.094-.122.207-.229.3-.348a2.912 2.912 0 0 0 .238-.382c.014-.172.022-.345.026-.518l.259-.338.408-.225.26-.339c-.021-.177-.05-.35-.079-.522.131-.094.264-.191.393-.3 0-.161-.007-.322-.015-.479a2.122 2.122 0 0 0 .234-.39c.01-.154.014-.307.009-.461a2.88 2.88 0 0 1 .062-.447 4.02 4.02 0 0 0 .039-.458 4.159 4.159 0 0 0 .161-.484 4.78 4.78 0 0 0 -.047-.493.888.888 0 0 0 -.539-.82 5.74 5.74 0 0 1 -.185-.98c-.1-.123-.212-.243-.327-.358a4.545 4.545 0 0 0 -.405-.272c-.069-.116-.15-.235-.239-.351z" fill="#fff"/><path d="m74.091 68.712c.061.3.405.272.508.313l1.583.62 2.381 1.055 2.309 1.229 2.458.882 2.324 1.176 2.48.823 2.313 1.232 2.46.872 2.439.92 2.45.892 1.211.481 1.947.748.111.031.551-1.12c.076-.163.191-.391.233-.488l.122-.293.5-1.175 1.594-2.084 1.1-2.383 1.217-2.293 1.377-2.207 1.268-2.254 1.368-2.224q.558-1.185 1.088-2.391c.366-.8.726-1.594 1.068-2.407q.648-1.149 1.245-2.33.423-1.256.834-2.494.548-1.193 1.067-2.406l.582-2.558 1.048-2.4.667-2.515 1.139-2.352.488-2.576.956-2.416 1.139-2.352.66-2.52.954-2.413 1.108-2.375.592-2.551.977-2.406 1.165-2.59.389-1.078a.593.593 0 0 0 .04-.13l-.137-.052-.273-.106-.539-.209c-.831-.318-1.118-.414-1.543-.567l-2.334-1.163-2.4-1.008-2.52-.708-2.278-1.313-2.453-.867-2.457-.945-2.519-.7-2.314-1.189-2.524-.678-2.41-.988-1.193-.548-1.088-.451-.606-.248c-.128-.1-.134.085-.192.153l-.143.278-.5 1.2-.231.618-.453 1.216-1.169 2.329-1.011 2.4-.953 2.425-1 2.4-1.032 2.386-1.135 2.355-1 2.4-1.024 2.359-1.162 2.334-.976 2.412-.766 2.5-1.015 2.393-1 2.4-1.151 2.343-.979 2.41-.905 2.44-1.065 2.375-.665 2.533-1.043 2.382-.841 2.462c-.366.794-.685 1.6-1.028 2.389l-.818 2.474-.814 2.469a9.242 9.242 0 0 0 -.571 1.744c-.014.1-.218.608.029.7a.3.3 0 0 0 .126.01 1.3 1.3 0 0 0 .248-.036.424.424 0 0 0 .288-.257c.257-.61.473-1.25.7-1.856l.966-2.414.915-2.432 1.072-2.371 1.109-2.375.87-2.451 1.075-2.362.87-2.45.948-2.418 1.025-2.386.813-2.467 1.135-2.354 1.089-2.358.883-2.446 1.176-2.321.983-2.4.96-2.414 1.217-2.292.863-2.456.892-2.444 1.287-2.271 1.09-2.367.782-2.5 1.345-2.243.413-1.242.2-.589a2.316 2.316 0 0 1 .039-.234c.019-.087.1-.046.171-.019l.286.111 1.212.465 2.416.951 2.375 1.109 2.348.968 2.524.669 2.429.918 2.269 1.318 2.523.683 2.4 1 2.268 1.237 2.49.777.615.207.15.05.045.008.106.022.119.027c.031.024.105.011.075.057l-.041.222a.644.644 0 0 0 -.1.135l-.164.284-.329.57-.654 1.143-.632 2.547-1.14 2.353-.729 2.5-1.162 2.34-.572 2.559-1.077 2.396-.681 2.519-1.119 2.373-.656 2.528-.794 2.477-1.125 2.362-.808 2.461q-.4 1.224-.823 2.438-.307 1.258-.659 2.5-.519 1.177-1.084 2.33-.66 1.105-1.359 2.183-.618 1.139-1.26 2.259l-.952 2.431-1.5 2.133-1.108 2.375-1.381 2.2-1.191 2.322-1.266 2.254-.963 1.659-.02-.016-.18-.137-.037-.029-.149-.065-.3-.134-1.19-.551-2.417-.941-2.421-.923-2.514-.688-2.357-1.075-2.314-1.189-2.407-.955-2.433-.906-2.339-1.156-2.474-.818-.718-.4-.566-.321c-.122-.093-.818-.567-1.259.466a1.08 1.08 0 0 0 -.085.591z" fill="#fff"/><path d="m94.133 29.118c-.345-.048-.128.026-.126.038l.062.193-.087.261-.392.189.135.308-.349.19.168.321-.457.155.045.293-.047.265-.044.267-.173.227.338.393-.568.1.228.363.021.3-.237.2-.081.261-.251.2.115.335.045.314-.357.157.112.338-.334.163.261.4-.416.128.117.347-.519.081.39.465-.234.2-.461.1.2.393-.174.227-.354.148.334.454-.171.224-.277.18.056.333-.342.152-.144.245.225.408-.572.046v.313l-.176.23.2.4-.462.1.2.4-.215.212-.339.154.1.355-.237.206-.037.294.027.322-.049.289-.086.273-.23.211-.073.277-.127.258-.292.185-.063.285.192.388-.123.26-.115.262-.3.186-.1.27-.024.3-.233.22.265.406-.224.222.017.308-.267.209-.019.3-.025.292c0 .071-.19.08.008.215.03.024-.042.055.443.221l.222.068.387.113c.234.066.308.075.316.065s0-.149 0-.222l.09-.265.013-.291.224-.215.282-.193-.009-.3.25-.2-.016-.3.068-.271.173-.227-.116-.346.277-.186.228-.207-.036-.318.321-.168.074-.271.037-.288.352-.151-.105-.348-.075-.337.423-.117.171-.224-.25-.417.481-.088-.176-.388.15-.239.174-.227.345-.149.174-.227-.222-.412.079-.273.592-.036-.248-.426.156-.24.472-.1-.167-.386-.093-.356.58-.056-.291-.442.406-.13-.128-.367.48-.1-.309-.446.385-.146-.131-.369.472-.111-.14-.371.065-.283.533-.092.091-.274.027-.3-.317-.435.156-.246.447-.142.184-.241-.366-.441.45-.145-.19-.37.254-.22-.058-.324.078-.278.114-.268.367-.192.138-.265.072-.283-.31-.388.255-.235.409-.2a1.828 1.828 0 0 0 0-.3l-.118-.331.229-.25-.286-.364.122-.068.1-.055c.016-.02.263-.062-1.263-.365-.445-.063-.697-.106-.846-.129z" fill="#fff"/><path d="m140.975 24.524-2.6-1.3-2.156-1.838-1.831-2.249c-.848-.45-1.686-.914-2.544-1.35l-1.21-.7c-.15-.077-.516-.314-.822-.5l-.91-.573-.08.063a3.947 3.947 0 0 0 -1.06.746l-.547.715-.107.139-.074-.1-.148-.2-.6-.818-.306-.422a.945.945 0 0 0 -.073-.094l-.016.021-.031.04-.633.59-.189.3a2.472 2.472 0 0 0 -.15.245l-.159.32-.319.642-.651 1.285-2.192 1.82-1.536 2.393-2.3 1.736-1.346 2.581-2.177 1.842-1.548 2.388-2.279 1.722-1.541 2.393-1.792 2.175-2.363 1.684-1.82 2.153-1.741 2.22-1.324 2.572-1.9 2.088-2.238 1.8-1.911 2.084-1.251 2.639-2.225 1.824-1.439 2.478-1.963 2.06-1.562 2.393c-.589.769-1.117 1.509-1.7 2.372a12.737 12.737 0 0 0 -1.163 1.948l-.435 1-.053.132-.041.054.054.042.22.168.444.34 1.634 1.572c.4.391.663.685 1 1.026.725.555 1.412 1.167 2.112 1.761s1.422 1.168 2.12 1.773c.833.449 1.651.924 2.481 1.392l1.89 2.086 1.726 2.279 2.136 1.85 2.264 1.732 1.953 2.1 1.263.73 1.273.711c.2.232.389.474.6.7l.486.544c.111.129.615.938 2.012-.888l-.044.057a2.731 2.731 0 0 0 -.145.4.447.447 0 0 0 .145.513 2.135 2.135 0 0 0 1.571.44 2.777 2.777 0 0 0 1.349-.7l1.11-.9 1.059-.935c.687-.646 1.368-1.3 2.037-1.961l2.221-1.766 2.256-1.739c.651-.684 1.3-1.372 1.927-2.077l2.268-1.757 1.871-2.13q.988-1.011 1.952-2.052l2.042-1.967 1.643-2.338q1.078-.932 2.136-1.885l2.044-1.97 1.669-2.307q1.083-.939 2.143-1.9l1.779-2.206 1.69-2.275q1.083-.944 2.134-1.924l1.428-2.485 1.43-2.473c.729-.63 1.447-1.273 2.161-1.919l1.745-2.238 1.137-2.687c.737-.634 1.458-1.281 2.177-1.933l.292-.663.6-1.106.55-1.035.257-.49.061-.121c.028-.037.057-.075-.015-.108l-.244-.186-2.809-2.767-2-2-1.814-2.22-2.056-1.955-2.54-1.406-2.185-1.8z" fill="#e12729"/><g fill="#fff"><path d="m116.956 64.437c.2.156.107.028.115.018a.666.666 0 0 0 .087-.17l.191-.208.351-.077.054-.324.326-.117.025-.335.384-.087.083-.291.133-.259.117-.265.181-.237-.134-.393c.144-.04.286-.093.431-.149-.029-.124-.061-.25-.1-.376a.851.851 0 0 1 .014-.328 3.08 3.08 0 0 0 .164-.3 3.235 3.235 0 0 0 .034-.34 2.909 2.909 0 0 0 .115-.353 3.082 3.082 0 0 0 -.185-.356 2.959 2.959 0 0 0 -.18-.326 2.48 2.48 0 0 0 .04-.4 2.673 2.673 0 0 0 -.318-.243.405.405 0 0 0 -.558-.486 1.882 1.882 0 0 0 -.222-.412 1.876 1.876 0 0 0 -.443-.011 1.919 1.919 0 0 0 -.353-.367 1.92 1.92 0 0 0 -.412.356 2.272 2.272 0 0 0 -.387-.021 2.673 2.673 0 0 0 -.45-.114 2.283 2.283 0 0 0 -.222.367 2.954 2.954 0 0 0 -.307.142 1.574 1.574 0 0 1 -.367.058 4.007 4.007 0 0 0 -.012.452l-.235.18-.291.127-.094.3c-.047.012-.115.046-.147.038a.385.385 0 0 1 -.071-.055h-.036a.865.865 0 0 1 .059.33.973.973 0 0 1 -.112-.408.264.264 0 0 1 -.025.11.206.206 0 0 1 0-.07.46.46 0 0 1 -.148.193 1.036 1.036 0 0 1 .136-.262c-.078.032-.222-.019-.329-.026l-.1-.252-.017-.314-.285-.1-.075-.267-.21-.161-.239-.145-.188-.182-.164-.2-.063-.269-.08-.092-.044-.034a.268.268 0 0 1 -.024-.067.341.341 0 0 1 .161-.049.241.241 0 0 1 -.054-.041.421.421 0 0 1 -.222-.117l.1-.047a1.361 1.361 0 0 0 .164-.158l.29-.091.177-.2.137-.234.247-.127-.01-.379.247-.128.122-.25.269-.106.143-.229a1.5 1.5 0 0 0 .136-.24c.039-.051.141-.037.078-.187-.017-.013.042-.055-.167-.252l-.105-.08-.182-.144-.155-.119a1.452 1.452 0 0 0 -.122.159 1.189 1.189 0 0 0 -.2.176l-.163.213-.258.12-.286.093-.132.242-.269.112-.128.246-.161.21-.223.151-.066.3a1.483 1.483 0 0 0 -.316.124l-.421.285a2.209 2.209 0 0 0 -.2.383l-.259.156c-.026.034-.106.053-.12.086l.017.1.314.412.319.362.037.233a1.366 1.366 0 0 1 0 .17l.308.118.288.129-.043.364.135.238.4.038-.067.39.354.071.146.23.138.235a1.535 1.535 0 0 0 .055.342c.092.125.17.255.282.383a1.4 1.4 0 0 0 .459.066 1.121 1.121 0 0 0 .34.153 1.344 1.344 0 0 0 .4.407 1.359 1.359 0 0 0 .37-.4 1.533 1.533 0 0 0 .35-.2 1.7 1.7 0 0 0 .48-.122l.089-.271a.842.842 0 0 0 0-.174l.04-.291a4.086 4.086 0 0 1 .42.069l-.05-.377a2.406 2.406 0 0 1 .306.008c.014-.1.034-.178.054-.275a1.834 1.834 0 0 1 .3.114 2.2 2.2 0 0 1 .014-.354.8.8 0 0 1 .217.123 1.027 1.027 0 0 1 .1-.2.742.742 0 0 1 .122.255.594.594 0 0 1 .147-.157.606.606 0 0 1 .127.017.993.993 0 0 1 -.075.308.577.577 0 0 1 .078.06.633.633 0 0 1 .1.08 1.319 1.319 0 0 1 .338 0 1.4 1.4 0 0 1 .027.182 1.291 1.291 0 0 1 -.2.215 1.294 1.294 0 0 1 -.041.151 1.843 1.843 0 0 1 .317.189 2.182 2.182 0 0 1 -.27.164 2.046 2.046 0 0 1 .151.239l-.169.172c.01.077.012.159.017.244l-.087.212-.125.206-.286.12-.147.193-.125.205.092.35-.241.133-.333.056-.115.213-.063.258-.261.1.024.341a.417.417 0 0 0 -.106.005l-.071.015s-.16-.03.622.718c.302.202.431.3.516.365z"/><path d="m122.472 54.846c-.2.127-.059.078-.059.078l.118.09.074.207a2.805 2.805 0 0 1 -.132.27l.2.153a1.766 1.766 0 0 1 -.163.213 2.184 2.184 0 0 1 .175.172 1.2 1.2 0 0 1 -.26.15l.054.133c0 .042-.013.065-.014.1s-.011.049-.018.072-.06 0-.082 0a.712.712 0 0 1 .074.283.81.81 0 0 1 -.191-.276.5.5 0 0 1 -.056.22.593.593 0 0 1 -.144.068l-.152-.117a1.165 1.165 0 0 1 -.174-.053l-.134-.177a1.923 1.923 0 0 1 -.252.028c-.08-.008-.157-.019-.242-.035l-.08-.281-.284-.036-.09-.283-.354.035-.038-.33-.288-.059.034-.382-.426.066-.1-.245.033-.351-.329-.048-.113-.225v-.3l-.41-.013-.109-.229-.031-.276-.236-.148a1.669 1.669 0 0 1 .043-.273l-.068-.192a3.192 3.192 0 0 1 -.318-.1 2.08 2.08 0 0 1 .28-.275 1.554 1.554 0 0 1 -.115-.152.719.719 0 0 1 .035-.151 1.248 1.248 0 0 1 -.217-.166.631.631 0 0 1 .28-.022.649.649 0 0 1 -.159-.191.611.611 0 0 1 .127-.027 1.031 1.031 0 0 1 .178.083.437.437 0 0 1 .057-.193 1.3 1.3 0 0 1 .183.049l.136-.073a.238.238 0 0 1 .124-.1.664.664 0 0 1 .174-.017l.195.047a1.4 1.4 0 0 1 .154.171 1.183 1.183 0 0 1 .206.083l.179.137.107.254a1.986 1.986 0 0 1 .207.115l.333-.014.176.178.179.174.074.282.175.178.207.158.1.252.368.024.1.248.226.146.075.261.21.161.207.158c.047.037-.007.135.145.112 0 0 .048.036.264-.078l.1-.067.182-.118c.109-.073.135-.107.134-.119a.719.719 0 0 0 -.134-.177l-.133-.247-.183-.21-.075-.288-.053-.309-.227-.174-.1-.283-.243-.159-.2-.192-.157-.238-.312-.083-.112-.29-.15-.26-.291-.1a3.12 3.12 0 0 0 -.132-.3l-.255-.158-.287-.117a2.245 2.245 0 0 0 -.185-.319c-.128 0-.238-.005-.368 0l-.365.021a2.653 2.653 0 0 0 -.306-.3 1.71 1.71 0 0 0 -.422-.044 1.186 1.186 0 0 0 -.325.326 1.746 1.746 0 0 0 -.412-.164 2.294 2.294 0 0 0 -.259.338 2.037 2.037 0 0 0 -.336.194 1.967 1.967 0 0 0 -.308.276 1.819 1.819 0 0 0 -.363.291 2.266 2.266 0 0 0 -.167.409 1.96 1.96 0 0 0 .217.419 2.071 2.071 0 0 0 .039.342 3.32 3.32 0 0 0 -.3.4 2.864 2.864 0 0 0 .339.259l.084.312c-.035.129-.077.269-.1.406a2.648 2.648 0 0 0 .338.177l.28.161-.144.427.41.067-.007.354.314.122-.031.385.417.024.042.338.323.091.014.382.33.074.227.174.012.412.23.177.259.139.406-.06.219.2c.041.122.088.244.138.368s.176.135.264.2a3.916 3.916 0 0 0 .432-.158 2.453 2.453 0 0 0 .252.338 3 3 0 0 0 .4-.12 2.1 2.1 0 0 0 .379.123 2.056 2.056 0 0 0 .39-.158 1.735 1.735 0 0 0 .378-.151 2.152 2.152 0 0 0 .353-.208 1.931 1.931 0 0 0 .442-.2 2.225 2.225 0 0 0 .278-.363 2.612 2.612 0 0 0 .138-.405 1.992 1.992 0 0 0 -.187-.416 3.364 3.364 0 0 0 .131-.346 3.674 3.674 0 0 0 .2-.381 2.53 2.53 0 0 0 -.1-.337 1.234 1.234 0 0 0 -.188-.294c-.064-.092.014-.237.014-.355a3.127 3.127 0 0 0 -.348-.207.8.8 0 0 0 .018-.121v-.094s.064-.182-.824.325c-.234.172-.377.264-.462.318z"/><path d="m126.551 49.655c-.184.149-.062.081-.062.081a.62.62 0 0 0 .108.083 1.484 1.484 0 0 1 .091.183c.027.063-.076.184-.113.268.061.046.141.075.2.125a1.207 1.207 0 0 1 -.132.221 1.924 1.924 0 0 1 .183.14.887.887 0 0 1 -.254.144l.073.093v.052l.008.039a.151.151 0 0 1 -.051-.039.548.548 0 0 1 .1.276 1.158 1.158 0 0 1 -.179-.293.561.561 0 0 1 -.083.227.926.926 0 0 1 -.166.077l-.173-.132a1.861 1.861 0 0 1 -.2-.032l-.154-.156-.246.075-.245.012-.135-.259-.272.039-.134-.253c-.11.045-.217.086-.331.123l-.1-.31-.28.016-.041-.375-.391.174c-.049-.07-.1-.139-.141-.21l-.03-.346-.321.04-.143-.185-.044-.286c-.129.035-.259.065-.39.088l-.128-.184c-.017-.082-.028-.166-.041-.241a2.292 2.292 0 0 1 -.228-.082c.013-.087.02-.173.037-.251l-.053-.149a1.678 1.678 0 0 1 -.307-.041c.094-.073.2-.166.3-.256a.6.6 0 0 1 -.125-.181l.028-.183a2.07 2.07 0 0 1 -.231-.176.946.946 0 0 1 .275-.086.72.72 0 0 1 -.2-.15.241.241 0 0 1 .1 0 .33.33 0 0 1 .139.106.242.242 0 0 1 -.041-.15.319.319 0 0 0 .105.081.527.527 0 0 1 .141-.059 1.2 1.2 0 0 1 .19-.086c.066-.008.139-.006.208-.012a1.339 1.339 0 0 1 .214.029l.19.145c.071.012.147.032.222.047a.775.775 0 0 1 .207.094l.157.217.225.064.313-.093.205.124.206.125.127.248.2.122.236.079.14.209.35-.071.135.217.234.087.091.247c.061.046.135.076.2.116l.192.121c.044.033-.007.128.15.071.013-.017.04.031.285-.142l.114-.085.2-.16c.118-.1.143-.138.124-.163a.477.477 0 0 0 -.161-.161 1.64 1.64 0 0 0 -.187-.212.985.985 0 0 0 -.236-.148l-.14-.253-.122-.276-.257-.1-.149-.248-.265-.09-.23-.134-.2-.183h-.314l-.166-.246-.189-.209-.29-.028-.175-.263-.261-.087a2.423 2.423 0 0 0 -.278-.051c-.064-.092-.128-.184-.2-.275-.113.021-.214.041-.326.068s-.208.04-.314.066a3.289 3.289 0 0 0 -.251-.289 2.987 2.987 0 0 0 -.326-.066 2.79 2.79 0 0 0 -.333.282 1.175 1.175 0 0 0 -.441-.2 1.644 1.644 0 0 0 -.316.37 1.522 1.522 0 0 0 -.339.246 1.316 1.316 0 0 0 -.259.339 3.154 3.154 0 0 0 -.314.34c-.038.124-.07.251-.1.378a3.4 3.4 0 0 0 .269.351l.052.3c-.1.126-.211.226-.312.352l.338.26a2.38 2.38 0 0 0 .094.34 4.144 4.144 0 0 0 -.079.434c.123.056.242.1.361.147a2.137 2.137 0 0 0 .31.135c-.032.147-.057.306-.087.471l.426-.008c.015.12.037.233.055.349l.329.047.048.381c.136-.025.273-.049.409-.079l.106.317c.108.007.217.005.326 0l.086.366.326-.013.249.11.09.4.25.116.271.074.374-.16a.856.856 0 0 0 .236.143c.057.108.111.219.177.329l.269.141c.127-.075.265-.157.384-.243.085.107.158.2.25.3.112-.048.226-.106.334-.163a2.48 2.48 0 0 0 .335.111 2.727 2.727 0 0 0 .348-.147 1.9 1.9 0 0 0 .37-.125 1.514 1.514 0 0 0 .363-.2 1.639 1.639 0 0 0 .456-.188 1.909 1.909 0 0 0 .265-.389 2.089 2.089 0 0 0 .137-.432 1.863 1.863 0 0 0 -.222-.412 2.715 2.715 0 0 0 .105-.354 3.754 3.754 0 0 0 .162-.381 3.009 3.009 0 0 0 -.127-.318c-.068-.094-.146-.181-.215-.267a3.31 3.31 0 0 0 -.022-.344l-.182-.085-.182-.07a.438.438 0 0 0 0-.12l-.014-.086s.028-.171-.785.421z"/><path d="m107.582 66.872.019-.024.1-.136c.065-.084.086-.111.061-.136a2.268 2.268 0 0 0 -.253-.237 4.093 4.093 0 0 0 -.318-.329 3.979 3.979 0 0 0 -.366-.28c-.107-.113-.2-.244-.321-.353a4.809 4.809 0 0 0 -.35-.364 2.671 2.671 0 0 0 -.475-.165 2.964 2.964 0 0 0 -.464-.258 2.71 2.71 0 0 0 -.525-.015 3.191 3.191 0 0 0 -.508 0c-.168-.005-.334.008-.5.015s-.3.159-.44.244l-.48.025-.465.074-.382.245-.469.045-.4.2a4.684 4.684 0 0 0 -.4.267l-.537.126c-.209.279-.408.567-.594.862l-.481.255a1.985 1.985 0 0 0 -.313.411c-.014.193-.017.379-.018.556a4.536 4.536 0 0 0 -.413.371 3.153 3.153 0 0 0 .05.532l-.1.459a2.441 2.441 0 0 0 -.083.473l-.178.487c-.015.166 0 .328 0 .493a5.008 5.008 0 0 0 .292.454l.122.459a3.8 3.8 0 0 0 -.2.556l.4.379a3.481 3.481 0 0 0 .183.463v.538l.427.327a3.2 3.2 0 0 0 .4.306c.016.191.042.39.08.6a3.246 3.246 0 0 0 .553.155l.244.482c.172.056.351.1.518.144a2.89 2.89 0 0 0 .273.493 4.387 4.387 0 0 0 .6-.08 2.226 2.226 0 0 0 .454.348 3.135 3.135 0 0 0 .568-.1 3.559 3.559 0 0 0 .555.215 3.4 3.4 0 0 0 .494-.266 4.624 4.624 0 0 0 .473-.176c.187.03.381.05.574.064.151-.078.3-.159.44-.245a3.543 3.543 0 0 0 .389-.3q.126-.247.232-.5l.388-.24.5-.1.387-.267c.052-.181.092-.365.134-.548.164-.052.336-.108.49-.162.064-.161.121-.327.173-.486q.192-.153.38-.321c.068-.152.133-.307.188-.464a3.7 3.7 0 0 1 .231-.435 3.718 3.718 0 0 0 .207-.454 4.488 4.488 0 0 0 .332-.434 4.591 4.591 0 0 0 .132-.516 4.228 4.228 0 0 0 .029-.516 4.674 4.674 0 0 0 -.262-.507 4.987 4.987 0 0 0 .042-.5 4.954 4.954 0 0 0 .1-.555c-.062-.165-.126-.327-.2-.487a5.164 5.164 0 0 0 -.3-.432c-.041-.171-.09-.338-.147-.51a4.349 4.349 0 0 0 -.491-.284l-.046-.165-.048-.127c.015-.074-.008-.291-.687.351z"/><path d="m137.223 35.573.018-.024.1-.135c.064-.085.085-.112.064-.134a1.846 1.846 0 0 0 -.229-.213 4.09 4.09 0 0 0 -.3-.31 3.531 3.531 0 0 0 -.339-.259c-.1-.106-.18-.229-.287-.327a4.229 4.229 0 0 0 -.313-.342 2.476 2.476 0 0 0 -.428-.144 2.719 2.719 0 0 0 -.423-.233 2.588 2.588 0 0 0 -.482-.009 2.926 2.926 0 0 0 -.468.008c-.156-.007-.3 0-.458.009s-.272.152-.395.235l-.443.011-.424.062-.351.242-.432.03-.362.185q-.191.117-.371.253l-.493.09q-.284.395-.534.811l-.455.222a1.844 1.844 0 0 0 -.287.376v.533a4.265 4.265 0 0 0 -.4.333 2.915 2.915 0 0 0 .063.494l-.117.448a2.245 2.245 0 0 0 -.082.437l-.178.444c-.013.151 0 .3 0 .454a4.527 4.527 0 0 0 .289.415l.114.42a3.568 3.568 0 0 0 -.208.518l.386.338a3.259 3.259 0 0 0 .149.415l-.025.518.412.283a3.059 3.059 0 0 0 .369.283c.006.179.018.368.036.564a3.069 3.069 0 0 0 .525.128l.2.442c.162.049.328.084.485.118a2.662 2.662 0 0 0 .285.449c.192-.019.374-.046.549-.079a2.028 2.028 0 0 0 .424.324 2.8 2.8 0 0 0 .527-.107 3.339 3.339 0 0 0 .516.218 3.031 3.031 0 0 0 .452-.261 4.245 4.245 0 0 0 .435-.168 4.823 4.823 0 0 0 .537.078c.136-.073.272-.146.405-.227a3.577 3.577 0 0 0 .35-.269q.108-.24.2-.477l.357-.221.47-.081.368-.256c.04-.173.072-.347.1-.519.156-.042.314-.087.471-.144.056-.151.1-.3.146-.458.12-.091.234-.183.344-.274a3.662 3.662 0 0 0 .154-.419 2.983 2.983 0 0 1 .2-.386c.054-.12.138-.271.195-.415a4.483 4.483 0 0 0 .308-.4 4.548 4.548 0 0 0 .122-.476 4.019 4.019 0 0 0 .046-.5 4.159 4.159 0 0 0 -.263-.464 5.771 5.771 0 0 1 .158-.986 4.3 4.3 0 0 0 -.191-.452 4.629 4.629 0 0 0 -.289-.394c-.035-.16-.077-.318-.127-.473a4.214 4.214 0 0 0 -.466-.255l-.039-.153-.037-.12c.064-.058.055-.257-.633.376z"/><path d="m85.747 69.136c-.045.3.287.4.373.468l1.285 1.128 1.878 1.808 1.738 1.942 2.011 1.662 1.774 1.894 2.045 1.624 1.749 1.928 2.017 1.656 1.981 1.693 2 1.673.96.852 1.578 1.364.092.07.9-.866c.127-.123.314-.3.388-.38l.216-.232.872-.945 2.206-1.422 1.828-1.863 1.925-1.751 2.045-1.6 1.979-1.709 2.042-1.629q.916-.91 1.834-1.879c.607-.61 1.222-1.252 1.818-1.9q.994-.852 1.966-1.763.834-1.02 1.626-2.07.923-.937 1.817-1.9l1.42-2.207 1.8-1.9 1.481-2.139 1.869-1.825 1.335-2.256 1.719-1.946 1.867-1.822 1.48-2.145 1.716-1.948 1.82-1.831 1.424-2.2 1.733-1.929 1.978-2.044.732-.88a.673.673 0 0 0 .083-.108l-.119-.091-.234-.179-.436-.377c-.682-.591-.91-.771-1.258-1.059l-1.774-1.895-1.915-1.76-2.129-1.521-1.688-2.007-2.016-1.649-1.925-1.752-2.129-1.516-1.774-1.894-2.141-1.5-1.925-1.752-.921-.9-.87-.794-.485-.441c-.085-.14-.154.033-.233.08l-.229.216-.87.947-.429.5-.836.972-1.894 1.774-1.767 1.909-1.718 1.958-1.767 1.922-1.775 1.9-1.85 1.8-1.76 1.914-1.785 1.89-1.895 1.775-1.739 1.936-1.587 2.074-1.767 1.91-1.757 1.916-1.86 1.8-1.739 1.936-1.681 1.986-1.808 1.872-1.484 2.158-1.792 1.885-1.631 2.028c-.6.613-1.183 1.244-1.78 1.9l-1.616 2.04-1.619 2.039a9.218 9.218 0 0 0 -1.117 1.461c-.062.081-.414.5-.206.669a.3.3 0 0 0 .116.052 1.463 1.463 0 0 0 .245.052.423.423 0 0 0 .361-.142c.447-.486.862-1.006 1.288-1.508l1.732-1.943 1.688-1.975 1.819-1.864 1.823-1.828 1.65-2.01 1.816-1.861 1.65-2.009 1.709-1.953 1.775-1.9 1.584-2.071 1.847-1.81 1.817-1.834 1.663-2 1.895-1.774 1.74-1.923 1.723-1.943 1.925-1.751 1.646-2.018 1.67-1.994 1.986-1.7 1.813-1.836 1.59-2.077 2.036-1.665.821-1.017.378-.494.116-.207c.065-.085.108-.009.163.039l.241.184.967.842 1.948 1.716 1.848 1.833 1.938 1.73 2.149 1.488 1.972 1.691 1.686 2.01 2.142 1.5 1.913 1.754 1.73 1.952 2.071 1.584.515.394.125.1.037.029.085.064.095.073c.03.023.081.062.056.075l-.115.191a.722.722 0 0 0 -.146.093l-.252.21-.5.426-1 .846-1.459 2.182-1.878 1.818-1.539 2.111-1.91 1.794-1.41 2.215-1.817 1.876-1.5 2.135-1.851 1.851-1.476 2.153-1.581 2.067-1.859 1.839-1.606 2.022q-.777 1.017-1.6 2c-.471.714-.956 1.418-1.469 2.132q-.887.933-1.817 1.833c-.674.559-1.355 1.069-2.03 1.6q-.97.869-1.942 1.689l-1.721 1.96-2.075 1.582-1.839 1.849-2.048 1.6-1.889 1.782-1.98 1.709-1.477 1.228-.02-.015-.136-.18-.034-.026-.129-.1-.234-.228-.918-.906-1.95-1.707-1.961-1.693-2.13-1.506-1.841-1.807-1.774-1.894-1.942-1.717-1.979-1.675-1.8-1.868-2.036-1.615-.537-.626-.422-.494c-.1-.121-.577-.812-1.341.011a1.076 1.076 0 0 0 -.303.445z"/><path d="m118.043 38.7c-.3-.163-.13-.019-.128-.007l-.01.2-.166.217-.432.045.02.338-.393.059.047.359-.481-.011-.059.288-.137.234-.132.237-.241.16.173.476-.566-.095.092.42-.08.288-.293.115-.166.217-.3.1-.008.354-.063.307-.389.024-.01.358-.369.04.108.469-.435-.021-.01.364-.515-.1.207.572-.289.112-.484-.07.058.437-.189.183-.384.018.16.541-.23.168-.322.076-.059.331-.374.025-.217.178.082.476-.556-.151-.1.294-.244.157.047.444-.479-.076.047.444-.275.128-.373.031-.03.37-.293.109-.138.265-.084.312-.142.256-.174.227-.285.121-.176.23-.2.2-.337.075-.156.246.045.432-.205.2-.2.209-.35.071-.174.227-.125.275-.29.127.112.472-.287.136-.088.3-.324.107-.118.274-.126.269c-.041.055-.206.01-.067.207.031.023-.044.058.343.359l.183.14.322.247c.2.15.251.191.275.167a2.058 2.058 0 0 0 .076-.211l.168-.22.108-.267.284-.126.33-.087.093-.283.3-.105.087-.288.168-.22.237-.163.007-.366.324-.08.282-.116.072-.311.359-.048.171-.224.133-.258.381-.02.021-.365.043-.344.436.034.23-.168-.094-.481.479.077-.035-.425.223-.173.237-.162.374-.025.237-.163-.074-.471.173-.227.571.168-.09-.487.23-.174.481.073-.022-.42.031-.364.575.161-.137-.523.425.013.006-.387.485.069-.137-.523.407-.006v-.39l.489.063-.007-.4.159-.243.53.094.176-.231.128-.273-.144-.513.232-.177.468.02.252-.168-.194-.54.474.013-.052-.416.312-.121.061-.324.176-.231.2-.212.413-.055.219-.2.179-.233-.17-.48.317-.133.45-.048a1.8 1.8 0 0 0 .105-.285v-.353l.3-.159-.147-.44.137-.024.107-.02s.266.031-1.064-.772c-.379-.236-.607-.367-.755-.446z"/><path d="m131.049 53.628c-.339-.259-.139-.058-.14-.042l-.009.208-.183.176-.455-.058.026.359-.418-.03.054.38-.51-.106-.057.285-.153.2-.132.221-.245.124.215.519-.6-.185.123.438-.064.279-.3.079-.153.2-.307.065.026.359-.029.305-.4-.013.03.361-.376.008.17.479-.448-.053.04.369-.542-.135.3.591-.277.095-.476-.08.125.44-.224.14h-.387l.246.549-.2.155-.315.06v.329l-.373.011-.187.168.17.479-.586-.175-.053.288-.219.144.126.44-.476-.08.125.44-.256.11-.364.012.033.358-.272.088-.092.247-.036.3-.1.236-.151.2-.268.084-.13.212-.182.167-.322.028-.127.215.078.425-.189.156-.183.161h-.332l-.165.175-.108.239-.27.057.091.472-.273.055-.1.254-.3.007-.135.219-.155.2c-.037.047-.177-.05-.084.172a1.051 1.051 0 0 0 .22.415l.133.178.236.309c.146.187.2.236.21.231a1.536 1.536 0 0 0 .127-.166l.222-.142.166-.217.3-.044h.341l.13-.255.315-.039.12-.262.181-.2.253-.113.012-.367.327-.034.291-.078.083-.27.364-.006.161-.21.116-.25.39.009-.011-.364.005-.344.453.061.214-.153-.163-.49.5.1-.1-.428.2-.161.215-.148.377-.007.211-.15-.17-.48.131-.221.607.19-.17-.48.2-.16.476.08-.095-.417-.027-.358.607.19-.208-.514.431.04-.06-.385.5.1-.222-.524.411.024-.06-.385.5.1-.06-.385.128-.224.559.148.153-.2.091-.253-.222-.524.215-.147.476.079.235-.131-.257-.557.477.08-.095-.417.308-.065.032-.3.153-.2.191-.165.418.03.212-.15.152-.2-.17-.48.328-.05.477.08.111-.237.019-.319.331-.047-.153-.467.149.023.118.021s.087.034-.024-.088a14.758 14.758 0 0 0 -1.141-1.023z"/></g></svg>