<svg height="90" viewBox="0 0 41.936 89.462" width="42" xmlns="http://www.w3.org/2000/svg"><path d="m41.8.082c-.275-.226-.37.057-.607.324s-.043.439-.279.705-.348.168-.584.435-.279.229-.515.495.03.5-.207.77-.546-.009-.783.258-.157.337-.394.6-.008.469-.245.736-.191.307-.428.573-.534 0-.771.27-.166.33-.4.6-.348.168-.586.435-.178.32-.416.587 0 .482-.234.749-.534 0-.772.273-.161.336-.4.6-.152.345-.391.613-.169.331-.408.6-.212.293-.451.562-.2.3-.442.573-.216.291-.455.56-.344.177-.583.446-.214.291-.453.56-.248.261-.487.53-.3.217-.535.485-.107.385-.345.654-.293.219-.531.487-.478.056-.716.324-.063.424-.3.692-.323.193-.561.461-.089.4-.327.669-.382.142-.62.41-.15.347-.389.616-.276.236-.515.5-.129.366-.368.635-.512.028-.751.3-.095.4-.335.669-.386.14-.627.41.077.551-.162.821-.375.149-.614.418-.292.223-.531.492-.068.421-.308.69-.488.048-.727.317 0 .477-.245.746-.386.138-.625.408-.124.373-.364.642-.33.19-.57.46-.39.137-.631.408-.276.238-.516.508.01.492-.23.761-.419.111-.658.38-.172.331-.412.6-.25.261-.49.531-.006.478-.247.748-.481.057-.721.327-.3.218-.538.487-.116.378-.355.647-.116.378-.354.646-.267.243-.506.512-.173.327-.412.595-.536.005-.776.275.057.534-.183.8-.461.076-.7.347-.34.182-.58.452-.078.414-.318.684-.249.263-.489.533-.406.125-.648.4-.134.366-.375.637-.174.33-.415.6-.263.248-.5.516-.083.411-.324.682-.471.068-.713.34-.288.23-.529.5-.237.279-.479.552-.126.378-.369.651-.2.315-.441.589-.741.207-.6.546.433.119.793.13.364-.121.723-.11.359.057.72.068.365-.109.727-.1.366-.147.727-.136.352.33.713.341.366-.1.728-.088.361.031.723.042.355.225.716.236.367-.184.728-.173.365-.051.727-.04.365-.028.728-.017.369-.148.734-.137.351.05.533.366.043.226-.132.543-.175.318-.351.635-.236.285-.411.6.035.435-.141.753-.256.274-.433.593-.416.184-.591.5.113.476-.062.792-.381.2-.555.518-.044.388-.219.7-.458.159-.633.475.232.542.056.859-.336.23-.512.548-.411.189-.588.508-.185.313-.361.631-.058.383-.234.7-.067.378-.243.7-.268.268-.445.588.108.477-.068.8-.564.1-.741.424-.169.324-.346.644.024.431-.153.75 0 .416-.179.735-.185.314-.361.633-.26.274-.438.594-.167.327-.345.647-.187.317-.365.639-.841.345-.677.674c.154.312.535.118.882.139s.372-.412.719-.392.333.225.679.246.337.2.683.218.368-.314.716-.293.329.331.676.351.367-.31.714-.289.339.192.687.213.351-.023.7 0 .337.2.685.222.351-.047.7-.027.341.152.69.172.367-.281.717-.26.337.238.688.259.708-.442.876-.134-.5.319-.673.634.079.447-.09.762-.454.161-.623.476-.007.4-.176.718.037.426-.132.742-.33.23-.5.546-.128.34-.3.656-.237.281-.407.6-.341.224-.511.541.132.477-.037.793-.409.188-.578.5-.206.3-.376.612 0 .407-.167.722.031.423-.138.739-.487.146-.657.462-.008.4-.178.718-.029.392-.2.709-.345.224-.515.541-.173.315-.343.632-.282.256-.452.572.051.435-.119.751-.463.159-.632.476.138.482-.031.8-.453.166-.623.483.15.489-.02.806-.135.335-.305.651-.244.275-.413.59-.3.247-.465.562-.224.285-.393.6.078.447-.091.762-.521.128-.69.444.182.506.012.823-.443.172-.614.49.116.47-.054.787-.429.178-.6.494.1.46-.074.778-.282.258-.453.577-.459.163-.63.481 0 .408-.173.726-.091.362-.262.681-.23.286-.4.605-.035.391-.2.709-.182.312-.352.629-.3.249-.475.568-.128.366-.296.683-.058.382-.23.7-.808.337-.534.576.351-.206.589-.469.177-.317.415-.58.356-.156.594-.419.128-.362.366-.625.313-.194.551-.457.255-.248.492-.51.183-.313.421-.576.144-.347.382-.61.371-.143.608-.406.05-.433.288-.7.354-.159.592-.422.27-.234.509-.5.322-.188.56-.451.014-.467.252-.731.407-.113.645-.377.159-.337.4-.6.06-.427.3-.691.329-.184.568-.449.345-.171.585-.436.286-.224.526-.49.008-.477.248-.743.57.032.811-.234.01-.474.251-.74.291-.219.531-.485.278-.23.518-.495.148-.347.388-.613.126-.367.365-.631.252-.254.491-.519.227-.276.466-.54.349-.166.588-.431.4-.118.64-.383.138-.356.377-.621.081-.408.32-.673.559.024.8-.242.13-.364.37-.629.075-.415.315-.681.474-.055.714-.321.259-.25.5-.517.041-.447.282-.714.357-.162.6-.428.079-.412.319-.678.5-.031.741-.3.047-.44.287-.706.139-.357.379-.622.5-.029.743-.3.111-.382.351-.648.206-.3.446-.564.435-.091.676-.358.1-.393.343-.661.375-.145.616-.412.251-.257.492-.523-.075-.551.165-.818.331-.184.572-.45.447-.081.688-.347.21-.293.451-.56.006-.48.247-.747.39-.131.63-.4.243-.263.483-.529.066-.421.3-.686.514-.018.753-.283.026-.458.266-.724.447-.078.687-.344.212-.294.454-.561.331-.187.573-.455 0-.482.244-.749.441-.086.682-.353-.067-.545.174-.812.246-.265.488-.533.437-.092.679-.359.127-.372.369-.639.492-.037.732-.3.041-.448.283-.715.226-.284.469-.552.139-.362.381-.63.409-.12.652-.39.18-.328.424-.6.386-.143.63-.414.47-.267.334-.6-.3.09-.649.09-.355-.133-.709-.133-.354-.189-.707-.189-.353.087-.706.087-.354-.011-.708-.011-.355.161-.71.161-.354-.161-.709-.161-.354.252-.709.252-.355-.138-.711-.138-.355-.167-.71-.167-.355.138-.709.138-.355.111-.709.111-.356-.018-.712-.018-.356-.221-.713-.221-.358.182-.715.182-.359.2-.536-.109-.209-.33-.03-.642.528-.111.708-.422.051-.385.23-.7.088-.365.267-.676.158-.324.338-.635.46-.151.64-.463-.029-.432.151-.745.3-.242.478-.553-.11-.477.068-.787.521-.113.7-.423.12-.344.3-.654-.04-.436.139-.746.116-.347.3-.658.284-.252.464-.564.409-.181.59-.494.229-.284.408-.6-.186-.523-.007-.834.347-.216.527-.528.3-.248.477-.561.014-.409.194-.721.314-.236.494-.549.117-.351.3-.665-.019-.428.162-.741.216-.293.4-.606.215-.292.4-.6.268-.264.449-.578.053-.389.234-.7.214-.3.4-.612.833-.323.655-.641-.508.136-.862.146-.357-.088-.712-.078-.351.11-.7.12-.36-.251-.713-.242-.345.331-.7.341-.36-.194-.716-.184-.349.187-.7.2-.353.053-.707.062-.358-.077-.714-.068-.353.084-.708.093-.358-.108-.713-.1-.352.082-.706.091-.356 0-.712.012-.36-.108-.717-.1-.359-.04-.716-.03-.439.383-.626.078.155-.219.326-.53.2-.3.367-.61.221-.284.393-.595.182-.306.354-.618-.1-.46.075-.772.342-.218.514-.531.1-.352.272-.665-.016-.418.157-.731.584-.087.756-.4-.064-.444.109-.757.086-.36.259-.672.43-.17.6-.483-.157-.493.016-.806.438-.165.61-.477.186-.305.358-.617-.043-.432.129-.744.459-.155.631-.468-.126-.479.046-.792.48-.145.653-.459-.119-.474.054-.787.156-.322.329-.636.121-.341.293-.654.295-.245.468-.558.412-.181.585-.495-.082-.454.091-.767.349-.217.522-.531.226-.283.4-.6-.126-.476.045-.788.167-.315.338-.627.454-.156.626-.467.051-.379.222-.69.046-.383.218-.7.211-.293.384-.607.385-.2.558-.513.044-.385.217-.7.381-.2.554-.511.127-.34.3-.653-.055-.441.119-.757.045-.385.218-.7.219-.289.392-.6.319-.236.493-.551.288-.252.462-.567-.142-.488.032-.8.471-.15.645-.465.124-.343.3-.659.316-.238.491-.555.034-.36.284-.623c.234-.261.435-.449.154-.679z" fill="white"/></svg>